<svg width="743" height="713" viewBox="0 0 743 713" fill="none" xmlns="http://www.w3.org/2000/svg">
<g clip-path="url(#clip0_355_1424)">
<path d="M624.815 168.892H620.915V61.915C620.915 45.4941 614.391 29.7458 602.78 18.1345C591.169 6.52317 575.42 8.07648e-09 559 8.07648e-09H332.35C324.219 -0.000131315 316.168 1.60122 308.656 4.71262C301.144 7.82401 294.318 12.3845 288.569 18.1338C282.819 23.883 278.259 30.7084 275.147 38.2202C272.035 45.7321 270.434 53.7832 270.434 61.914V648.798C270.434 665.219 276.957 680.967 288.568 692.579C300.179 704.19 315.928 710.713 332.349 710.713H558.997C575.417 710.713 591.166 704.19 602.777 692.579C614.388 680.967 620.912 665.219 620.912 648.798V245.04H624.812L624.815 168.892Z" fill="#3F3D56"/>
<path d="M608.215 57.7679V652.943C608.213 665.393 603.267 677.333 594.465 686.137C585.662 694.942 573.723 699.89 561.273 699.895H329.973C317.518 699.897 305.572 694.951 296.763 686.146C287.955 677.341 283.004 665.398 283 652.943V57.7679C283.004 45.3134 287.954 33.3703 296.763 24.5656C305.571 15.7608 317.516 10.8153 329.971 10.8169H358.029C356.651 14.2049 356.127 17.8794 356.502 21.5175C356.877 25.1556 358.14 28.6459 360.18 31.6816C362.22 34.7173 364.974 37.2055 368.201 38.9274C371.427 40.6493 375.028 41.5523 378.685 41.5569H510.553C514.21 41.5523 517.811 40.6493 521.037 38.9274C524.264 37.2055 527.018 34.7173 529.058 31.6816C531.098 28.6459 532.361 25.1556 532.736 21.5175C533.111 17.8794 532.587 14.2049 531.209 10.8169H561.264C573.714 10.819 585.654 15.7651 594.458 24.5677C603.262 33.3703 608.21 45.3089 608.215 57.7589V57.7679Z" fill="white"/>
<path d="M445.565 296.694C498.896 296.694 542.13 253.46 542.13 200.129C542.13 146.798 498.896 103.564 445.565 103.564C392.234 103.564 349 146.798 349 200.129C349 253.46 392.234 296.694 445.565 296.694Z" fill="#3498DB"/>
<path d="M550.881 400.596H345.344C344.335 400.595 343.368 400.194 342.654 399.48C341.94 398.767 341.539 397.799 341.538 396.79V345.806C341.539 344.797 341.941 343.83 342.654 343.116C343.368 342.403 344.335 342.001 345.344 342H550.881C551.89 342.001 552.857 342.403 553.571 343.116C554.284 343.83 554.686 344.797 554.687 345.806V396.791C554.686 397.8 554.284 398.767 553.571 399.481C552.857 400.194 551.89 400.596 550.881 400.597V400.596ZM345.344 343.522C344.738 343.523 344.158 343.763 343.73 344.192C343.301 344.62 343.061 345.2 343.06 345.806V396.791C343.061 397.397 343.301 397.977 343.73 398.405C344.158 398.834 344.738 399.074 345.344 399.075H550.881C551.487 399.074 552.067 398.834 552.496 398.405C552.924 397.977 553.165 397.397 553.165 396.791V345.806C553.165 345.2 552.924 344.62 552.496 344.192C552.067 343.763 551.487 343.523 550.881 343.522H345.344Z" fill="#E6E6E6"/>
<path d="M408.908 360.361C408.201 360.361 407.523 360.642 407.024 361.141C406.524 361.641 406.243 362.319 406.243 363.026C406.243 363.732 406.524 364.41 407.024 364.91C407.523 365.409 408.201 365.69 408.908 365.69H534.513C535.219 365.717 535.907 365.463 536.426 364.982C536.944 364.502 537.251 363.835 537.278 363.129C537.305 362.423 537.05 361.735 536.57 361.216C536.09 360.698 535.423 360.391 534.717 360.364C534.678 360.362 534.639 360.362 534.6 360.362L408.908 360.361Z" fill="#E6E6E6"/>
<path d="M408.908 376.345C408.201 376.345 407.523 376.626 407.024 377.125C406.524 377.625 406.243 378.303 406.243 379.009C406.243 379.716 406.524 380.394 407.024 380.894C407.523 381.393 408.201 381.674 408.908 381.674H534.513C535.219 381.701 535.907 381.446 536.426 380.966C536.944 380.486 537.251 379.819 537.278 379.113C537.305 378.407 537.05 377.719 536.57 377.2C536.09 376.681 535.423 376.375 534.717 376.348C534.678 376.346 534.639 376.346 534.6 376.346L408.908 376.345Z" fill="#E6E6E6"/>
<path d="M550.881 485.576H345.344C344.335 485.575 343.368 485.174 342.654 484.46C341.94 483.746 341.539 482.779 341.538 481.77V430.786C341.539 429.777 341.941 428.81 342.654 428.096C343.368 427.383 344.335 426.981 345.344 426.98H550.881C551.89 426.981 552.857 427.383 553.571 428.096C554.284 428.81 554.686 429.777 554.687 430.786V481.771C554.685 482.78 554.284 483.747 553.57 484.46C552.857 485.173 551.89 485.575 550.881 485.576ZM345.344 428.502C344.738 428.502 344.158 428.743 343.73 429.172C343.301 429.6 343.061 430.18 343.06 430.786V481.771C343.061 482.377 343.301 482.957 343.73 483.385C344.158 483.814 344.738 484.054 345.344 484.055H550.881C551.487 484.054 552.067 483.814 552.496 483.385C552.924 482.957 553.165 482.377 553.165 481.771V430.786C553.165 430.18 552.924 429.6 552.496 429.172C552.067 428.743 551.487 428.502 550.881 428.502H345.344Z" fill="#E6E6E6"/>
<path d="M408.908 445.617C408.201 445.617 407.523 445.898 407.024 446.397C406.524 446.897 406.243 447.575 406.243 448.281C406.243 448.988 406.524 449.666 407.024 450.166C407.523 450.665 408.201 450.946 408.908 450.946H534.513C535.209 450.942 535.877 450.665 536.372 450.175C536.867 449.686 537.151 449.021 537.162 448.325C537.174 447.628 536.912 446.955 536.433 446.449C535.954 445.943 535.296 445.645 534.6 445.618H408.908V445.617Z" fill="#E6E6E6"/>
<path d="M408.908 461.605C408.201 461.605 407.523 461.886 407.024 462.385C406.524 462.885 406.243 463.563 406.243 464.269C406.243 464.976 406.524 465.654 407.024 466.154C407.523 466.653 408.201 466.934 408.908 466.934H534.513C535.209 466.93 535.877 466.653 536.372 466.164C536.867 465.674 537.151 465.009 537.162 464.313C537.174 463.616 536.912 462.943 536.433 462.437C535.954 461.931 535.296 461.633 534.6 461.606H408.908V461.605Z" fill="#E6E6E6"/>
<path d="M550.881 570.834H345.344C344.335 570.833 343.368 570.432 342.654 569.718C341.94 569.005 341.539 568.037 341.538 567.028V516.044C341.539 515.035 341.941 514.068 342.654 513.354C343.368 512.641 344.335 512.239 345.344 512.238H550.881C551.89 512.239 552.857 512.641 553.571 513.354C554.284 514.068 554.686 515.035 554.687 516.044V567.029C554.686 568.038 554.284 569.005 553.571 569.719C552.857 570.432 551.89 570.834 550.881 570.835V570.834ZM345.344 513.76C344.738 513.761 344.158 514.001 343.73 514.43C343.301 514.858 343.061 515.438 343.06 516.044V567.029C343.061 567.635 343.301 568.215 343.73 568.643C344.158 569.072 344.738 569.313 345.344 569.313H550.881C551.487 569.313 552.067 569.072 552.496 568.643C552.924 568.215 553.165 567.635 553.165 567.029V516.044C553.165 515.438 552.924 514.858 552.496 514.43C552.067 514.001 551.487 513.761 550.881 513.76H345.344Z" fill="#E6E6E6"/>
<path d="M408.908 530.878C408.201 530.878 407.523 531.159 407.024 531.658C406.524 532.158 406.243 532.836 406.243 533.542C406.243 534.249 406.524 534.927 407.024 535.427C407.523 535.926 408.201 536.207 408.908 536.207H534.513C534.862 536.22 535.211 536.165 535.539 536.043C535.868 535.922 536.169 535.737 536.426 535.499C536.682 535.261 536.89 534.975 537.036 534.657C537.182 534.339 537.264 533.996 537.278 533.646C537.291 533.296 537.236 532.947 537.114 532.619C536.993 532.291 536.808 531.99 536.57 531.733C536.332 531.476 536.046 531.269 535.728 531.123C535.41 530.976 535.066 530.894 534.717 530.881C534.678 530.879 534.639 530.879 534.6 530.879L408.908 530.878Z" fill="#E6E6E6"/>
<path d="M408.908 546.865C408.201 546.865 407.523 547.146 407.024 547.645C406.524 548.145 406.243 548.823 406.243 549.53C406.243 550.236 406.524 550.914 407.024 551.414C407.523 551.913 408.201 552.194 408.908 552.194H534.513C534.862 552.207 535.211 552.152 535.539 552.03C535.868 551.909 536.169 551.724 536.426 551.486C536.682 551.248 536.89 550.962 537.036 550.644C537.182 550.326 537.264 549.983 537.278 549.633C537.291 549.283 537.236 548.934 537.114 548.606C536.993 548.278 536.808 547.977 536.57 547.72C536.332 547.463 536.046 547.256 535.728 547.11C535.41 546.963 535.066 546.881 534.717 546.868C534.678 546.866 534.639 546.866 534.6 546.866H408.908L408.908 546.865Z" fill="#E6E6E6"/>
<path d="M740.479 712.573H1.93799C0.866988 712.573 0 712.105 0 711.528C0 710.951 0.867988 710.483 1.93799 710.483H740.479C741.549 710.483 742.417 710.951 742.417 711.528C742.417 712.105 741.55 712.573 740.479 712.573Z" fill="#E6E6E6"/>
<path d="M709.201 671.808C706.046 672.917 702.658 673.195 699.364 672.615C696.07 672.034 692.981 670.616 690.395 668.495C683.808 662.967 681.743 653.859 680.063 645.425L675.093 620.48L685.498 627.645C692.981 632.797 700.632 638.115 705.814 645.578C710.996 653.041 713.257 663.229 709.094 671.304" fill="#E6E6E6"/>
<path d="M707.594 703.745C708.904 694.203 710.251 684.539 709.332 674.896C708.516 666.331 705.903 657.966 700.583 651.107C697.759 647.473 694.323 644.36 690.43 641.907C689.415 641.266 688.48 642.875 689.491 643.513C696.228 647.771 701.438 654.059 704.372 661.469C707.612 669.71 708.132 678.693 707.572 687.446C707.234 692.74 706.519 697.999 705.798 703.251C705.741 703.489 705.776 703.739 705.897 703.951C706.018 704.164 706.214 704.322 706.448 704.395C706.685 704.459 706.939 704.427 707.153 704.305C707.367 704.183 707.525 703.982 707.592 703.745H707.594Z" fill="#F2F2F2"/>
<path d="M698.167 688.435C696.814 690.492 694.953 692.165 692.766 693.295C690.578 694.424 688.136 694.971 685.676 694.882C679.353 694.582 674.081 690.169 669.336 685.982L655.301 673.587L664.59 673.143C671.27 672.823 678.123 672.525 684.49 674.585C690.857 676.645 696.721 681.603 697.884 688.185" fill="#E6E6E6"/>
<path d="M711.295 709.23C704.995 698.074 697.677 685.675 684.61 681.712C680.976 680.614 677.167 680.22 673.386 680.553C672.194 680.653 672.492 682.493 673.686 682.39C680.023 681.864 686.349 683.537 691.598 687.129C696.649 690.567 700.581 695.346 703.909 700.415C705.948 703.515 707.774 706.756 709.6 709.988C710.18 711.02 711.886 710.275 711.295 709.23Z" fill="#F2F2F2"/>
<path d="M370.986 386.971C379.815 386.971 386.972 379.814 386.972 370.985C386.972 362.156 379.815 354.999 370.986 354.999C362.157 354.999 355 362.156 355 370.985C355 379.814 362.157 386.971 370.986 386.971Z" fill="#3498DB"/>
<path d="M363.333 367.999C363.149 367.999 363 369.192 363 370.663C363 372.134 363.149 373.328 363.333 373.328H379.052C379.236 373.352 379.388 372.179 379.391 370.708C379.493 369.792 379.381 368.865 379.063 368H363.333V367.999Z" fill="#E6E6E6"/>
<path d="M370.986 472.264C379.815 472.264 386.972 465.107 386.972 456.278C386.972 447.449 379.815 440.292 370.986 440.292C362.157 440.292 355 447.449 355 456.278C355 465.107 362.157 472.264 370.986 472.264Z" fill="#3498DB"/>
<path d="M363.333 453.292C363.149 453.292 363 454.485 363 455.956C363 457.427 363.149 458.621 363.333 458.621H379.052C379.236 458.645 379.388 457.472 379.391 456.001C379.493 455.085 379.381 454.158 379.063 453.293L363.333 453.292Z" fill="#E6E6E6"/>
<path d="M370.986 557.522C379.815 557.522 386.972 550.365 386.972 541.536C386.972 532.707 379.815 525.55 370.986 525.55C362.157 525.55 355 532.707 355 541.536C355 550.365 362.157 557.522 370.986 557.522Z" fill="#3498DB"/>
<path d="M363.333 538.55C363.149 538.55 363 539.743 363 541.214C363 542.685 363.149 543.879 363.333 543.879H379.052C379.236 543.903 379.388 542.73 379.391 541.259C379.493 540.343 379.381 539.416 379.063 538.551L363.333 538.55Z" fill="#E6E6E6"/>
<path d="M424.706 173.612L419.049 179.269L466.425 226.645L472.082 220.989L424.706 173.612Z" fill="white"/>
<path d="M472.082 179.269L466.425 173.613L419.049 220.989L424.706 226.646L472.082 179.269Z" fill="white"/>
<path d="M90.2591 456.135C91.645 455.644 92.9064 454.856 93.9546 453.825C95.0028 452.794 95.8122 451.546 96.3259 450.169C96.8396 448.791 97.045 447.318 96.9277 445.853C96.8104 444.387 96.3731 442.966 95.6469 441.687L119.212 414.824L100.817 412.286L81.2589 438.185C79.1926 439.548 77.6978 441.621 77.0577 444.012C76.4177 446.402 76.677 448.945 77.7864 451.158C78.8958 453.37 80.7782 455.099 83.077 456.016C85.3758 456.934 87.9313 456.976 90.2591 456.135Z" fill="#9F616A"/>
<path d="M118.679 694.215L102.244 694.214L94.4248 630.82L118.682 630.821L118.679 694.215Z" fill="#9F616A"/>
<path d="M122.871 710.147L69.876 710.145V709.474C69.8764 704.004 72.0497 698.758 75.9179 694.889C79.7861 691.021 85.0325 688.848 90.503 688.848H90.5043L122.872 688.849L122.871 710.147Z" fill="#2F2E41"/>
<path d="M204.713 680.461L189.017 685.334L162.751 627.11L185.917 619.918L204.713 680.461Z" fill="#9F616A"/>
<path d="M213.441 694.433L162.829 710.147L162.631 709.506C161.009 704.282 161.529 698.627 164.076 693.786C166.623 688.945 170.989 685.313 176.213 683.691L176.214 683.69L207.126 674.093L213.441 694.433Z" fill="#2F2E41"/>
<path d="M106.093 401.943L81.752 429.82L100.808 431.535L106.093 401.943Z" fill="#E6E6E6"/>
<path d="M96.582 437.876C96.582 437.876 88.127 442.103 87.07 461.127C86.013 480.151 90.241 529.827 90.241 529.827C90.241 529.827 86.014 552.021 90.241 572.101C94.468 592.181 86.014 665.101 91.298 665.101C96.582 665.101 124.06 668.272 125.117 665.101C126.174 661.93 127.231 614.372 127.231 614.372C127.231 614.372 135.686 590.064 127.231 575.272C127.231 575.272 156.752 626.82 175.846 666.161C180.025 674.771 211.779 665.104 206.495 655.592C201.211 646.08 188.529 602.749 188.529 602.749C188.529 602.749 179.017 571.043 162.108 557.304L170.563 489.665C170.563 489.665 188.53 444.22 177.963 437.879C167.396 431.538 96.582 437.876 96.582 437.876Z" fill="#2F2E41"/>
<path d="M128.287 265.607C143.462 265.607 155.765 253.305 155.765 238.129C155.765 222.953 143.462 210.651 128.287 210.651C113.111 210.651 100.809 222.953 100.809 238.129C100.809 253.305 113.111 265.607 128.287 265.607Z" fill="#A0616A"/>
<path d="M158.936 267.721L124.776 287.801C124.776 287.801 111.696 295.167 106.81 307.881C101.602 321.431 104.629 340.509 106.81 344.871C111.037 353.326 105.037 374.463 105.037 374.463L99.753 423.078C99.753 423.078 80.73 441.044 95.526 443.158C110.322 445.272 136.743 442.101 152.596 443.158C168.449 444.215 186.415 446.329 181.131 435.758C175.847 425.187 169.506 417.791 175.847 396.658C180.809 380.118 180.594 318.275 180.266 292.158C180.221 288.571 179.259 285.056 177.472 281.946C175.684 278.836 173.131 276.235 170.055 274.391L158.936 267.721Z" fill="#E5E5E5"/>
<path opacity="0.1" d="M143.616 301.013L146.786 365.481L116.06 427.704L110.849 425.721L142.555 367.594L143.616 301.013Z" fill="black"/>
<path opacity="0.1" d="M178.488 379.219V371.819L142.559 431.005L178.488 379.219Z" fill="black"/>
<path d="M108.785 212.674L104.246 210.858C104.246 210.858 113.746 200.401 126.959 201.31L123.242 197.218C123.242 197.218 132.327 193.581 140.587 203.128C144.929 208.147 149.952 214.047 153.087 220.692H157.952L155.922 225.163L163.028 229.634L155.734 228.834C156.424 232.694 156.188 236.663 155.044 240.413L155.244 243.947C155.244 243.947 146.785 230.858 146.785 229.042V233.589C146.785 233.589 142.242 229.497 142.242 226.769L139.764 229.952L138.525 224.952L123.245 229.952L125.721 225.858L116.221 227.222L119.938 222.222C119.938 222.222 109.201 228.132 108.788 233.134C108.375 238.136 103.007 244.5 103.007 244.5L100.529 239.953C100.529 239.953 96.8125 219.494 108.785 212.674Z" fill="#2F2E41"/>
<path d="M126.562 459.125C127.839 458.397 128.941 457.397 129.789 456.196C130.638 454.996 131.213 453.624 131.474 452.177C131.735 450.731 131.675 449.244 131.3 447.823C130.924 446.402 130.242 445.08 129.3 443.951L147.723 413.331L129.169 414.099L114.519 443.058C112.727 444.766 111.624 447.071 111.419 449.538C111.213 452.004 111.92 454.461 113.404 456.441C114.889 458.422 117.048 459.789 119.473 460.283C121.898 460.778 124.421 460.366 126.562 459.125Z" fill="#9F616A"/>
<path d="M168.449 281.462L176.375 279.877C176.375 279.877 200.154 297.315 192.756 332.191C185.358 367.067 152.596 419.91 152.596 419.91C152.596 419.91 145.196 429.422 143.084 431.535C140.972 433.648 136.743 431.535 138.857 434.706C140.971 437.877 135.686 439.99 135.686 439.99C135.686 439.99 112.435 439.99 114.549 431.535C116.663 423.08 152.596 362.835 152.596 362.835L147.312 306.822C147.312 306.822 143.083 279.348 168.449 281.462Z" fill="#E5E5E5"/>
</g>
<defs>
<clipPath id="clip0_355_1424">
<rect width="742.417" height="712.573" fill="white"/>
</clipPath>
</defs>
</svg>
