<svg width="727" height="535" viewBox="0 0 727 535" fill="none" xmlns="http://www.w3.org/2000/svg">
<g clip-path="url(#clip0_352_1232)">
<path d="M339.926 384.39C339.496 384.6 339.076 384.8 338.646 385.02C332.895 387.86 327.384 391.161 322.166 394.89C321.756 395.17 321.346 395.47 320.946 395.76C308.481 404.864 297.813 416.203 289.486 429.2C287.605 432.12 285.866 435.13 284.246 438.2C283.006 440.58 281.839 443 280.746 445.46C276.636 454.79 272.976 465.44 264.886 471.16C264.017 471.784 263.101 472.339 262.145 472.82C262.065 472.86 261.976 472.9 261.895 472.94C261.849 467.703 261.051 462.5 259.525 457.49C259.275 456.65 258.996 455.81 258.696 454.99C258.556 454.6 258.415 454.21 258.256 453.83C257.262 451.199 256.047 448.656 254.625 446.23C250.576 439.087 244.684 433.161 237.565 429.07C235.513 434.158 232.901 439.001 229.775 443.51C232.136 438.55 234.696 433.71 237.506 429.03C237.573 428.901 237.65 428.777 237.736 428.66C238.156 427.94 238.596 427.23 239.036 426.52C245.82 415.366 254.43 405.431 264.506 397.13C271.482 391.531 279.298 387.07 287.666 383.91C304.266 377.64 322.696 376.74 338.716 383.84C339.126 384.02 339.525 384.2 339.926 384.39Z" fill="#F0F0F0"/>
<path d="M339.756 384.93C339.386 384.96 339.016 384.99 338.645 385.02C330.853 385.672 323.156 387.185 315.696 389.53C315.326 389.65 314.946 389.77 314.565 389.89C304.236 393.24 294.488 398.169 285.665 404.5C285.576 404.56 285.476 404.63 285.386 404.7C283.335 406.19 281.339 407.757 279.395 409.4C275.665 412.409 272.435 415.99 269.826 420.01C267.769 423.378 266.526 427.178 266.196 431.11C266.156 431.5 266.125 431.9 266.096 432.29C266.085 432.61 266.065 432.92 266.056 433.24C265.966 436.24 266.105 439.29 265.815 442.28C265.7 443.643 265.459 444.992 265.096 446.31C264.375 448.859 262.995 451.173 261.096 453.02C260.358 453.749 259.555 454.409 258.696 454.99C258.556 454.6 258.416 454.21 258.256 453.83C259.105 453.241 259.895 452.571 260.616 451.83C261.954 450.459 262.981 448.815 263.625 447.01C264.112 445.602 264.434 444.142 264.586 442.66C264.926 439.72 264.786 436.7 264.855 433.77C264.875 433.01 264.916 432.26 264.976 431.52C265.223 427.731 266.276 424.039 268.065 420.69C270.461 416.552 273.546 412.852 277.186 409.75C279.466 407.71 281.849 405.788 284.326 403.99C284.646 403.75 284.966 403.51 285.296 403.29C301.05 392.16 319.493 385.444 338.716 383.84C339.085 383.8 339.446 383.78 339.815 383.75C340.576 383.69 340.516 384.88 339.756 384.93Z" fill="white"/>
<path d="M284.611 404.471C282.601 401.285 281.789 397.487 282.32 393.757C282.851 390.027 284.69 386.607 287.51 384.108C288.082 383.605 288.892 384.47 288.318 384.975C285.689 387.297 283.975 390.483 283.488 393.957C283.001 397.431 283.772 400.966 285.661 403.922C286.071 404.564 285.019 405.11 284.611 404.471Z" fill="white"/>
<path d="M265.837 431.028C273.333 432.795 281.22 431.672 287.925 427.882C288.589 427.506 289.138 428.557 288.474 428.932C281.49 432.863 273.28 434.015 265.483 432.159C264.74 431.982 265.098 430.852 265.837 431.028Z" fill="white"/>
<path d="M315.553 389.187C316.074 390.582 316.933 391.826 318.054 392.806C319.174 393.787 320.521 394.474 321.972 394.806C322.717 394.974 322.359 396.104 321.619 395.937C320.016 395.563 318.53 394.802 317.29 393.721C316.05 392.64 315.093 391.272 314.503 389.736C314.436 389.596 314.424 389.435 314.47 389.287C314.517 389.138 314.618 389.013 314.754 388.937C314.893 388.865 315.055 388.85 315.205 388.897C315.355 388.944 315.48 389.048 315.553 389.187Z" fill="white"/>
<path d="M362.455 472.58C361.995 472.49 361.535 472.4 361.075 472.33L361.065 472.32H361.045C354.749 471.113 348.364 470.427 341.955 470.27H341.945C341.445 470.25 340.955 470.23 340.465 470.23H340.455C325.021 469.99 309.677 472.622 295.205 477.99C295.185 478 295.175 478 295.155 478.01C289.392 480.147 283.803 482.725 278.435 485.72C272.705 488.91 266.805 492.66 260.685 494.84C259.459 495.289 258.207 495.663 256.935 495.96C257.235 495.32 257.525 494.67 257.795 494.02C259.79 489.25 261.074 484.213 261.605 479.07C261.655 478.64 261.695 478.21 261.725 477.77C261.855 476.17 261.915 474.55 261.895 472.94C261.849 467.703 261.051 462.5 259.525 457.49C259.275 456.65 258.995 455.81 258.695 454.99C258.555 454.6 258.415 454.21 258.255 453.83C257.261 451.199 256.047 448.657 254.625 446.23C255.535 445.86 256.455 445.5 257.375 445.16C259.755 444.26 262.165 443.43 264.585 442.66H264.595C264.995 442.53 265.405 442.4 265.815 442.28C271.838 440.424 278.002 439.06 284.245 438.2C287.665 437.738 291.106 437.451 294.555 437.34C303.471 437.072 312.373 438.21 320.935 440.71C320.955 440.72 320.975 440.72 320.995 440.73C338.035 445.71 353.285 456.09 361.815 471.41C362.035 471.8 362.245 472.18 362.455 472.58Z" fill="#F0F0F0"/>
<path d="M361.996 472.91C361.686 472.71 361.386 472.52 361.076 472.33L361.065 472.32C354.448 468.145 347.389 464.718 340.016 462.1C339.645 461.96 339.266 461.83 338.895 461.71C328.62 458.156 317.855 456.22 306.986 455.97C306.866 455.96 306.756 455.96 306.645 455.96C304.116 455.91 301.589 455.96 299.065 456.11C294.278 456.266 289.546 457.181 285.046 458.82C281.376 460.27 278.095 462.557 275.466 465.5C275.186 465.79 274.926 466.08 274.676 466.38C274.466 466.63 274.266 466.87 274.065 467.12C271.335 470.51 268.936 474.3 265.426 476.97C265.216 477.13 265.006 477.28 264.796 477.41C263.807 478.096 262.735 478.653 261.605 479.07C261.656 478.64 261.696 478.21 261.726 477.77C262.463 477.464 263.169 477.089 263.835 476.65C264.196 476.41 264.546 476.16 264.886 475.89C268.056 473.43 270.315 469.94 272.786 466.81C273.236 466.24 273.686 465.7 274.166 465.17C276.65 462.249 279.742 459.904 283.226 458.3C287.627 456.437 292.314 455.341 297.085 455.06C300.132 454.801 303.189 454.698 306.246 454.75C306.645 454.75 307.046 454.76 307.446 454.78C318.476 455.117 329.39 457.144 339.806 460.79C347.523 463.48 354.907 467.043 361.815 471.41C362.136 471.6 362.446 471.8 362.756 472C363.395 472.42 362.636 473.32 361.996 472.91Z" fill="white"/>
<path d="M306.199 455.313C306.513 451.559 308.15 448.038 310.82 445.379C313.49 442.721 317.017 441.098 320.773 440.8C321.533 440.742 321.659 441.921 320.897 441.979C317.399 442.249 314.114 443.762 311.633 446.242C309.152 448.723 307.639 452.009 307.368 455.507C307.309 456.267 306.14 456.069 306.199 455.313Z" fill="white"/>
<path d="M275.22 465.215C280.141 471.139 287.115 474.991 294.75 476.002C295.507 476.101 295.312 477.27 294.557 477.171C286.613 476.104 279.364 472.081 274.256 465.905C273.77 465.316 274.736 464.629 275.22 465.215Z" fill="white"/>
<path d="M340.106 461.74C339.682 463.167 339.619 464.678 339.924 466.135C340.228 467.593 340.889 468.952 341.848 470.091C342.342 470.674 341.375 471.36 340.885 470.781C339.831 469.518 339.102 468.016 338.763 466.406C338.423 464.796 338.483 463.128 338.937 461.546C338.967 461.394 339.055 461.258 339.181 461.168C339.308 461.077 339.464 461.038 339.618 461.059C339.773 461.085 339.911 461.171 340.002 461.299C340.094 461.426 340.131 461.585 340.106 461.74Z" fill="white"/>
<path d="M46.5023 240.214C31.0431 218.22 25.6392 187.641 38.6592 164.121C49.6669 191.204 69.8997 213.521 95.7777 227.123C105.777 232.333 117.441 237.086 121.874 247.453C124.633 253.903 123.893 261.422 121.388 267.975C118.883 274.528 114.754 280.312 110.668 286.015L110.418 287.749C85.8438 276.847 61.9614 262.208 46.5023 240.214Z" fill="#F0F0F0"/>
<path d="M39.1845 164.325C39.3566 186.576 46.5354 208.208 59.7013 226.147C62.4671 230.059 65.8322 233.511 69.6729 236.375C73.5043 239.044 77.9806 240.639 82.6368 240.993C86.9715 241.411 91.4538 241.336 95.6116 242.8C97.7288 243.581 99.6569 244.8 101.27 246.379C102.882 247.957 104.143 249.859 104.97 251.958C107.165 257.137 107.368 262.796 107.374 268.336C107.382 274.488 107.292 280.877 110.055 286.537C110.39 287.223 109.306 287.702 108.972 287.017C104.164 277.171 107.719 265.881 104.962 255.585C103.676 250.782 100.935 246.336 96.2199 244.308C92.097 242.535 87.4747 242.608 83.0821 242.224C78.5348 241.945 74.125 240.557 70.2379 238.18C66.2639 235.521 62.7713 232.205 59.9099 228.373C53.3304 219.851 48.1318 210.346 44.5046 200.209C40.3008 188.662 38.1032 176.481 38.0069 164.193C38.0012 163.433 39.1789 163.569 39.1845 164.325Z" fill="white"/>
<path d="M55.1226 220.62C51.813 222.42 47.9711 222.986 44.2832 222.215C40.5952 221.444 37.3013 219.388 34.9897 216.412C34.524 215.809 35.4401 215.057 35.9064 215.661C38.0539 218.436 41.1223 220.351 44.558 221.062C47.9937 221.773 51.5703 221.232 54.6422 219.537C55.3102 219.169 55.7868 220.255 55.1226 220.62Z" fill="white"/>
<path d="M80.4109 241.071C82.6585 233.704 82.047 225.761 78.6983 218.825C78.366 218.138 79.4495 217.659 79.7814 218.345C83.2527 225.569 83.8722 233.836 81.5164 241.497C81.2914 242.227 80.1871 241.797 80.4109 241.071Z" fill="white"/>
<path d="M41.8689 188.755C43.2946 188.325 44.5913 187.548 45.6424 186.493C46.6936 185.439 47.4663 184.139 47.8912 182.712C48.1069 181.98 49.2111 182.411 48.9968 183.138C48.52 184.713 47.6648 186.147 46.5061 187.315C45.3473 188.483 43.9201 189.349 42.3493 189.838C42.2051 189.897 42.044 189.898 41.8988 189.842C41.7536 189.786 41.6351 189.677 41.5675 189.537C41.5046 189.393 41.501 189.23 41.5574 189.084C41.6138 188.938 41.7258 188.819 41.8689 188.755Z" fill="white"/>
<path d="M128.122 147.339C128 147.801 127.878 148.262 127.763 148.731C126.159 154.94 125.063 161.269 124.484 167.656C124.432 168.149 124.386 168.65 124.348 169.143C123.118 184.546 124.758 200.042 129.185 214.846C130.952 220.735 133.165 226.481 135.804 232.034C139.448 239.703 144.011 247.728 144.883 255.913C144.984 256.766 145.032 257.624 145.026 258.483L112.552 287.919C112.445 287.949 112.344 287.987 112.236 288.017L110.993 289.252C110.837 288.975 110.681 288.684 110.525 288.407C110.434 288.247 110.35 288.08 110.259 287.92C110.2 287.811 110.142 287.702 110.083 287.607C110.063 287.571 110.044 287.534 110.031 287.505C109.972 287.41 109.927 287.316 109.875 287.228C108.999 285.607 108.132 283.976 107.276 282.336C107.269 282.329 107.269 282.329 107.27 282.315C100.776 269.805 95.2692 256.643 91.9354 243.064C91.8352 242.655 91.728 242.24 91.6426 241.818C90.1739 235.688 89.2085 229.449 88.7562 223.163C88.5196 219.72 88.4575 216.267 88.57 212.818C88.8779 203.905 90.5858 195.097 93.6309 186.716C99.7037 170.009 111.052 155.429 126.905 147.903C127.31 147.71 127.709 147.524 128.122 147.339Z" fill="#F0F0F0"/>
<path d="M128.421 147.818C115.162 165.688 107.87 187.282 107.582 209.532C107.435 214.321 108.043 219.103 109.385 223.702C110.838 228.14 113.452 232.109 116.956 235.195C120.166 238.138 123.79 240.777 126.228 244.449C127.448 246.347 128.254 248.482 128.591 250.713C128.928 252.944 128.79 255.222 128.186 257.396C126.82 262.852 123.576 267.492 120.245 271.92C116.547 276.836 112.629 281.884 111.427 288.066C111.282 288.815 110.128 288.546 110.273 287.798C112.363 277.042 121.999 270.167 125.996 260.287C127.862 255.677 128.349 250.477 125.805 246.02C123.581 242.122 119.846 239.397 116.571 236.445C113.108 233.485 110.423 229.721 108.75 225.484C107.178 220.968 106.386 216.217 106.408 211.435C106.286 200.669 107.857 189.951 111.065 179.673C114.66 167.922 120.239 156.873 127.56 147.004C128.014 146.393 128.872 147.211 128.421 147.818Z" fill="white"/>
<path d="M107.254 202.362C103.527 201.807 100.119 199.945 97.6387 197.109C95.1581 194.273 93.7663 190.648 93.7119 186.881C93.7111 186.727 93.7699 186.579 93.8761 186.468C93.9822 186.357 94.1274 186.291 94.2809 186.285C94.4345 186.279 94.5844 186.333 94.6992 186.435C94.8139 186.537 94.8845 186.68 94.8961 186.833C94.9403 190.341 96.2371 193.718 98.5524 196.354C100.868 198.99 104.049 200.711 107.522 201.208C108.277 201.317 108.004 202.47 107.254 202.362Z" fill="white"/>
<path d="M115.133 233.917C121.362 229.388 125.656 222.678 127.158 215.124C127.307 214.375 128.46 214.645 128.312 215.392C126.735 223.25 122.252 230.224 115.759 234.922C115.139 235.37 114.517 234.361 115.133 233.917Z" fill="white"/>
<path d="M115.857 168.941C117.254 169.456 118.757 169.616 120.232 169.407C121.706 169.198 123.105 168.625 124.304 167.742C124.917 167.287 125.539 168.296 124.93 168.748C123.601 169.718 122.055 170.348 120.427 170.583C118.798 170.817 117.137 170.65 115.588 170.095C115.438 170.055 115.308 169.959 115.226 169.827C115.144 169.695 115.115 169.536 115.146 169.383C115.182 169.231 115.277 169.099 115.41 169.016C115.543 168.933 115.704 168.906 115.857 168.941Z" fill="white"/>
<path d="M264.885 471.16C264.596 464.95 263.316 458.826 261.095 453.02C260.946 452.62 260.785 452.23 260.615 451.83C259.685 449.537 258.603 447.308 257.375 445.16C253.049 437.411 246.713 430.971 239.035 426.52C238.885 426.44 238.745 426.36 238.605 426.28C240.968 419.562 241.761 412.392 240.926 405.32C239.145 391.15 231.225 378.54 221.665 368.25C203.935 349.15 179.006 337.74 161.805 318.28C161.585 318.03 161.355 317.77 161.135 317.51C160.905 317.25 160.685 316.98 160.455 316.71C158.176 314.018 156.078 311.179 154.176 308.21C150.929 303.105 148.23 297.671 146.125 292C145.395 290.03 144.725 288.02 144.135 286C143.546 284.02 143.026 282.02 142.575 280C142.135 278.01 141.759 276.01 141.446 274C141.135 272.01 140.892 270.01 140.716 268C140.535 266 140.419 264 140.365 262C140.102 252.22 141.385 242.46 144.165 233.08C144.256 232.75 144.355 232.43 144.466 232.1C144.565 231.77 144.665 231.44 144.775 231.11C144.865 230.82 144.955 230.54 145.055 230.25C149.685 216.41 157.935 204.76 168.145 194.46C174.525 188.02 181.415 182.07 188.035 175.86C188.275 175.64 188.515 175.41 188.756 175.18C189.006 174.95 189.265 174.71 189.515 174.47C193.709 170.543 197.682 166.386 201.415 162.02C203.575 159.463 205.589 156.785 207.446 154C208.756 152.06 209.975 150.05 211.095 148C212.175 146.04 213.159 144.04 214.046 142C214.895 140.04 215.655 138.03 216.305 136C216.939 134.03 217.463 132.027 217.875 130C218.285 128.019 218.576 126.015 218.745 124C218.754 123.981 218.757 123.96 218.756 123.94C219.675 113.649 216.587 103.4 210.135 95.3298C209.895 95.0198 209.645 94.7197 209.385 94.4198C209.135 94.1098 208.875 93.8098 208.605 93.5198C207.278 92.0156 205.84 90.6118 204.305 89.3198C187.895 75.4198 166.405 73.0698 146.515 66.8498C146.196 66.7498 145.885 66.6498 145.565 66.5498C145.236 66.4398 144.905 66.3398 144.575 66.2298C139.451 64.5998 134.476 62.5322 129.705 60.0498C129.645 60.0198 129.595 59.9898 129.535 59.9598C126.838 58.5188 124.263 56.86 121.835 54.9998C119.486 53.2073 117.31 51.1985 115.335 48.9998C114.825 48.4398 114.336 47.8698 113.865 47.2898C112.756 45.9398 110.915 47.5698 111.506 48.9998C111.562 49.1518 111.643 49.2937 111.745 49.4198C113.372 51.4176 115.154 53.2834 117.075 54.9998C119.59 57.2522 122.312 59.2612 125.205 60.9998C130.84 64.3072 136.84 66.9482 143.085 68.8698C143.415 68.9798 143.745 69.0798 144.075 69.1898C144.395 69.2898 144.716 69.3898 145.046 69.4898C157.095 73.2398 169.855 75.6298 181.275 79.8898C189.915 83.1098 198.615 87.5698 205.165 94.1798C205.435 94.4598 205.705 94.7398 205.966 95.0198C206.236 95.2998 206.495 95.5898 206.756 95.8798C208.341 97.6726 209.754 99.6112 210.975 101.67C214.857 108.431 216.503 116.247 215.675 124C215.5 126.016 215.199 128.02 214.775 130C214.34 132.031 213.786 134.034 213.115 136C212.515 137.81 211.815 139.58 211.046 141.32C210.946 141.55 210.835 141.78 210.736 142C209.785 144.07 208.745 146.07 207.615 148C206.415 150.07 205.125 152.06 203.745 154C198.815 160.713 193.253 166.938 187.135 172.59C186.885 172.83 186.635 173.07 186.385 173.3C186.145 173.53 185.905 173.75 185.675 173.98C174.805 184.22 163.145 193.85 154.315 205.83C148.731 213.46 144.456 221.966 141.665 231C141.565 231.33 141.455 231.66 141.365 232C141.256 232.33 141.155 232.66 141.065 233C138.367 242.422 137.129 252.202 137.395 262C137.445 264 137.555 266 137.736 268C137.905 270.01 138.139 272.01 138.435 274C138.575 274.99 138.735 275.97 138.915 276.95C139.095 277.97 139.296 278.99 139.525 280C139.945 282.02 140.445 284.02 141.006 286C141.575 288.02 142.225 290.02 142.935 292C145.38 298.875 148.672 305.419 152.736 311.48C154.256 313.73 155.875 315.88 157.595 317.95C157.825 318.22 158.055 318.5 158.285 318.77C158.506 319.04 158.736 319.3 158.965 319.56C165.785 327.42 173.915 334.1 182.275 340.35C204.315 356.82 232.115 373.75 237.575 403.14C238.866 410.42 238.28 417.909 235.875 424.9C232.688 423.423 229.334 422.338 225.885 421.67C215.198 419.778 204.187 421.326 194.435 426.09C194.135 426.24 193.835 426.39 193.535 426.54C193.225 426.71 192.915 426.87 192.615 427.04C186.515 430.239 181.425 435.072 177.915 441C176.849 442.903 175.987 444.914 175.345 447C174.751 448.955 174.356 450.965 174.165 453C174.075 453.93 174.025 454.89 174.015 455.86C174.004 456.909 174.057 457.957 174.175 459C174.401 461.062 174.916 463.082 175.705 465C176.517 467.008 177.712 468.839 179.225 470.39C179.435 470.6 179.645 470.81 179.865 471C182.013 472.846 184.584 474.133 187.35 474.746C190.115 475.358 192.989 475.277 195.715 474.51C197.229 474.119 198.705 473.593 200.125 472.94C200.585 472.74 201.035 472.52 201.475 472.28C201.915 472.06 202.355 471.82 202.796 471.57C206.663 469.256 210.215 466.453 213.365 463.23C218.651 457.942 223.506 452.24 227.885 446.18C228.525 445.3 229.155 444.41 229.775 443.51C232.9 439.001 235.513 434.158 237.565 429.07C244.684 433.161 250.575 439.087 254.625 446.23C256.047 448.656 257.261 451.199 258.255 453.83C258.415 454.21 258.555 454.6 258.695 454.99C258.995 455.81 259.275 456.65 259.525 457.49C261.051 462.5 261.849 467.703 261.895 472.94C261.915 474.55 261.855 476.17 261.725 477.77C261.695 478.21 261.655 478.64 261.605 479.07C261.074 484.213 259.79 489.25 257.795 494.02C257.525 494.67 257.235 495.32 256.935 495.96C251.615 507.083 243.234 516.46 232.775 522.99C227.392 526.411 221.564 529.076 215.455 530.91C213.615 531.47 214.395 534.37 216.255 533.81C235.665 527.95 252.965 513.55 260.685 494.84C262.919 489.447 264.296 483.738 264.765 477.92C264.775 477.75 264.795 477.58 264.795 477.41C264.835 476.9 264.865 476.4 264.885 475.89C264.955 474.32 264.945 472.74 264.885 471.16ZM226.006 443.68C221.727 449.677 216.975 455.321 211.796 460.56C209.441 462.989 206.877 465.208 204.135 467.19C203.725 467.48 203.305 467.76 202.885 468.04C202.465 468.31 202.035 468.57 201.605 468.82C199.221 470.26 196.611 471.287 193.885 471.86C190.38 472.572 186.735 471.929 183.685 470.06C181.698 468.822 180.078 467.075 178.995 465C178.895 464.828 178.805 464.651 178.725 464.47C177.922 462.74 177.399 460.894 177.175 459C176.924 457.007 176.927 454.991 177.185 453C177.39 451.325 177.741 449.672 178.236 448.06C178.345 447.7 178.466 447.35 178.585 447C179.333 444.887 180.333 442.872 181.565 441C184.861 436.119 189.295 432.113 194.486 429.33C194.785 429.16 195.085 429 195.395 428.84C195.685 428.68 195.975 428.53 196.275 428.39C198.481 427.297 200.776 426.394 203.135 425.69C213.611 422.514 224.881 423.224 234.875 427.69C232.596 433.368 229.616 438.74 226.006 443.68Z" fill="#E4E4E4"/>
<path d="M105.516 91C130.368 91 150.516 70.8528 150.516 46C150.516 21.1472 130.368 1 105.516 1C80.6628 1 60.5156 21.1472 60.5156 46C60.5156 70.8528 80.6628 91 105.516 91Z" fill="white"/>
<path d="M105.516 4.32187e-06C97.4646 -0.00348536 89.5532 2.10638 82.5727 6.1187C75.5922 10.131 69.7871 15.9052 65.7376 22.8642C61.6881 29.8232 59.5361 37.7232 59.4966 45.7746C59.4572 53.826 61.5317 61.7467 65.5128 68.745C69.4939 75.7434 75.2421 81.5742 82.183 85.6547C89.1238 89.7353 97.0141 91.9226 105.065 91.998C113.116 92.0734 121.046 90.0343 128.062 86.0845C135.078 82.1347 140.935 76.4126 145.046 69.49C145.566 68.63 146.056 67.75 146.516 66.85C150.083 59.8376 151.792 52.0273 151.48 44.1659C151.167 36.3044 148.843 28.6547 144.729 21.9479C140.616 15.2411 134.851 9.70163 127.986 5.859C121.12 2.01637 113.384 -0.000917397 105.516 4.32187e-06ZM105.516 90C95.9065 90.0076 86.5583 86.8715 78.8975 81.0702C71.2367 75.2689 65.6839 67.1209 63.0862 57.8692C60.4885 48.6175 60.9885 38.77 64.5099 29.8289C68.0313 20.8879 74.3807 13.3442 82.5897 8.34859C90.7987 3.35303 100.416 1.17988 109.976 2.16066C119.535 3.14144 128.511 7.2223 135.535 13.7807C142.558 20.3391 147.244 29.015 148.876 38.4848C150.508 47.9547 148.998 57.6985 144.576 66.23C144.116 67.13 143.616 68.01 143.086 68.87C139.162 75.3189 133.645 80.6498 127.065 84.3503C120.486 88.0508 113.065 89.9964 105.516 90Z" fill="#E4E4E4"/>
<path d="M83.5156 37L127.516 37C129.172 37 130.516 35.6569 130.516 34C130.516 32.3431 129.172 31 127.516 31L83.5156 31C81.8588 31 80.5156 32.3431 80.5156 34C80.5156 35.6569 81.8588 37 83.5156 37Z" fill="#E4E4E4"/>
<path d="M83.5156 49L127.516 49C129.172 49 130.516 47.6569 130.516 46C130.516 44.3431 129.172 43 127.516 43L83.5156 43C81.8588 43 80.5156 44.3431 80.5156 46C80.5156 47.6569 81.8588 49 83.5156 49Z" fill="#E4E4E4"/>
<path d="M83.5156 61L127.516 61C129.172 61 130.516 59.6569 130.516 58C130.516 56.3431 129.172 55 127.516 55L83.5156 55C81.8588 55 80.5156 56.3431 80.5156 58C80.5156 59.6569 81.8588 61 83.5156 61Z" fill="#E4E4E4"/>
<path d="M141.516 322C166.368 322 186.516 301.853 186.516 277C186.516 252.147 166.368 232 141.516 232C116.663 232 96.5156 252.147 96.5156 277C96.5156 301.853 116.663 322 141.516 322Z" fill="white"/>
<path d="M144.775 231.11C143.746 231.04 142.716 231 141.666 231H141.516C134.721 230.999 128.01 232.504 121.866 235.406C115.721 238.309 110.296 242.536 105.981 247.784C101.665 253.033 98.5657 259.173 96.9056 265.762C95.2455 272.351 95.0659 279.226 96.3795 285.893C97.6932 292.56 100.468 298.853 104.503 304.32C108.539 309.787 113.736 314.292 119.72 317.511C125.704 320.73 132.327 322.583 139.113 322.937C145.899 323.292 152.679 322.138 158.966 319.56C159.926 319.16 160.876 318.73 161.806 318.28C170.879 313.82 178.23 306.496 182.723 297.439C187.216 288.382 188.601 278.098 186.662 268.175C184.723 258.253 179.57 249.245 171.999 242.546C164.428 235.846 154.86 231.827 144.775 231.11ZM141.516 321C129.885 321 118.728 316.394 110.483 308.191C102.238 299.988 97.5762 288.854 97.5167 277.224C97.4572 265.594 102.005 254.413 110.165 246.126C118.326 237.839 129.436 233.119 141.065 233H141.516C142.406 233 143.286 233.03 144.166 233.08C153.903 233.667 163.169 237.473 170.507 243.9C177.845 250.327 182.839 259.01 184.704 268.585C186.569 278.16 185.199 288.083 180.81 296.794C176.42 305.506 169.26 312.511 160.456 316.71C159.516 317.16 158.565 317.57 157.596 317.95C152.476 319.971 147.02 321.006 141.516 321Z" fill="#E4E4E4"/>
<path d="M119.516 268H163.516C165.172 268 166.516 266.657 166.516 265C166.516 263.343 165.172 262 163.516 262H119.516C117.859 262 116.516 263.343 116.516 265C116.516 266.657 117.859 268 119.516 268Z" fill="#E4E4E4"/>
<path d="M119.516 280H163.516C165.172 280 166.516 278.657 166.516 277C166.516 275.343 165.172 274 163.516 274H119.516C117.859 274 116.516 275.343 116.516 277C116.516 278.657 117.859 280 119.516 280Z" fill="#E4E4E4"/>
<path d="M119.516 292H163.516C165.172 292 166.516 290.657 166.516 289C166.516 287.343 165.172 286 163.516 286H119.516C117.859 286 116.516 287.343 116.516 289C116.516 290.657 117.859 292 119.516 292Z" fill="#E4E4E4"/>
<path d="M159.516 501C184.368 501 204.516 480.853 204.516 456C204.516 431.147 184.368 411 159.516 411C134.663 411 114.516 431.147 114.516 456C114.516 480.853 134.663 501 159.516 501Z" fill="white"/>
<path d="M196.276 428.39C195.686 427.6 195.076 426.84 194.436 426.09C187.856 418.414 178.931 413.121 169.04 411.028C159.149 408.936 148.844 410.162 139.72 414.515C130.595 418.869 123.16 426.109 118.565 435.114C113.969 444.118 112.469 454.387 114.297 464.33C116.125 474.273 121.178 483.337 128.676 490.119C136.174 496.901 145.697 501.023 155.773 501.847C165.85 502.671 175.917 500.152 184.417 494.679C192.917 489.206 199.377 481.084 202.796 471.57C203.319 470.135 203.766 468.673 204.136 467.19C205.803 460.546 205.962 453.613 204.602 446.9C203.242 440.186 200.397 433.862 196.276 428.39ZM159.516 500C152.154 500.004 144.909 498.162 138.444 494.64C131.979 491.119 126.501 486.032 122.512 479.845C118.522 473.658 116.149 466.569 115.609 459.228C115.069 451.886 116.379 444.526 119.421 437.822C122.462 431.118 127.137 425.284 133.017 420.855C138.898 416.426 145.795 413.543 153.078 412.47C160.361 411.397 167.797 412.169 174.705 414.714C181.612 417.26 187.771 421.498 192.616 427.04C193.266 427.78 193.886 428.54 194.486 429.33C198.724 434.874 201.581 441.347 202.819 448.215C204.057 455.082 203.641 462.146 201.606 468.82C201.184 470.218 200.69 471.593 200.126 472.94C196.775 480.949 191.133 487.79 183.908 492.604C176.683 497.418 168.198 499.991 159.516 500Z" fill="#E4E4E4"/>
<path d="M137.516 447H181.516C183.172 447 184.516 445.657 184.516 444C184.516 442.343 183.172 441 181.516 441H137.516C135.859 441 134.516 442.343 134.516 444C134.516 445.657 135.859 447 137.516 447Z" fill="#E4E4E4"/>
<path d="M137.516 459H181.516C183.172 459 184.516 457.657 184.516 456C184.516 454.343 183.172 453 181.516 453H137.516C135.859 453 134.516 454.343 134.516 456C134.516 457.657 135.859 459 137.516 459Z" fill="#E4E4E4"/>
<path d="M137.516 471H181.516C183.172 471 184.516 469.657 184.516 468C184.516 466.343 183.172 465 181.516 465H137.516C135.859 465 134.516 466.343 134.516 468C134.516 469.657 135.859 471 137.516 471Z" fill="#E4E4E4"/>
<path d="M215.516 184C240.368 184 260.516 163.853 260.516 139C260.516 114.147 240.368 94 215.516 94C190.663 94 170.516 114.147 170.516 139C170.516 163.853 190.663 184 215.516 184Z" fill="#3498DB"/>
<path d="M215.516 93C213.203 93.0003 210.893 93.1741 208.606 93.52C207.436 93.69 206.296 93.9099 205.166 94.18C196.864 96.0936 189.257 100.276 183.194 106.261C177.131 112.246 172.85 119.798 170.828 128.074C168.807 136.35 169.125 145.025 171.747 153.131C174.368 161.237 179.191 168.455 185.676 173.98C186.446 174.63 187.226 175.26 188.036 175.86C193.874 180.213 200.662 183.117 207.842 184.334C215.022 185.55 222.388 185.045 229.334 182.858C236.28 180.672 242.608 176.867 247.796 171.757C252.984 166.648 256.885 160.379 259.178 153.467C261.47 146.555 262.088 139.198 260.981 132C259.875 124.802 257.074 117.971 252.811 112.067C248.548 106.163 242.944 101.356 236.46 98.041C229.976 94.7261 222.798 92.9984 215.516 93ZM215.516 183C206.16 183.01 197.047 180.02 189.516 174.47C188.696 173.87 187.906 173.25 187.136 172.59C180.818 167.26 176.13 160.258 173.609 152.385C171.089 144.513 170.839 136.09 172.887 128.082C174.935 120.073 179.199 112.805 185.19 107.109C191.18 101.414 198.655 97.5217 206.756 95.88C207.876 95.65 208.996 95.47 210.136 95.33C211.921 95.109 213.717 94.9988 215.516 95.0001C227.185 95.0001 238.377 99.6358 246.628 107.887C254.88 116.139 259.516 127.331 259.516 139C259.516 150.67 254.88 161.861 246.628 170.113C238.377 178.364 227.185 183 215.516 183Z" fill="#E4E4E4"/>
<path d="M193.516 130H237.516C239.172 130 240.516 128.657 240.516 127C240.516 125.343 239.172 124 237.516 124H193.516C191.859 124 190.516 125.343 190.516 127C190.516 128.657 191.859 130 193.516 130Z" fill="white"/>
<path d="M193.516 142H237.516C239.172 142 240.516 140.657 240.516 139C240.516 137.343 239.172 136 237.516 136H193.516C191.859 136 190.516 137.343 190.516 139C190.516 140.657 191.859 142 193.516 142Z" fill="white"/>
<path d="M193.516 154H237.516C239.172 154 240.516 152.657 240.516 151C240.516 149.343 239.172 148 237.516 148H193.516C191.859 148 190.516 149.343 190.516 151C190.516 152.657 191.859 154 193.516 154Z" fill="white"/>
<path d="M474.817 519.554L463.283 515.4L473.818 468.933L490.842 475.064L474.817 519.554Z" fill="#FFB6B6"/>
<path d="M476.165 515.79L464.175 511.47L456.395 508.67C454.494 507.985 452.477 507.681 450.459 507.776C448.44 507.87 446.46 508.362 444.632 509.221C442.804 510.081 441.162 511.293 439.802 512.787C438.442 514.281 437.39 516.029 436.705 517.93L436.535 518.4L473.735 531.79L479.115 516.85L476.165 515.79Z" fill="#2F2E41"/>
<path d="M658.468 503.131L647.892 509.331L618.942 471.488L634.552 462.337L658.468 503.131Z" fill="#FFB6B6"/>
<path d="M659.146 498.1L656.446 499.68L645.446 506.13L638.316 510.31C636.572 511.331 635.046 512.685 633.827 514.296C632.607 515.906 631.716 517.742 631.206 519.697C630.697 521.652 630.577 523.688 630.855 525.69C631.133 527.691 631.803 529.618 632.826 531.36L633.076 531.79L667.176 511.8L659.146 498.1Z" fill="#2F2E41"/>
<path d="M545.205 125.852C558.755 125.852 569.74 114.867 569.74 101.317C569.74 87.7665 558.755 76.7817 545.205 76.7817C531.655 76.7817 520.67 87.7665 520.67 101.317C520.67 114.867 531.655 125.852 545.205 125.852Z" fill="#FFB6B6"/>
<path d="M554.693 134.671L549.553 136.108L531.515 149L511.994 171.989C511.994 171.989 504.984 185.133 507.612 200.029C510.241 214.926 516.004 245.956 516.004 245.956C516.004 245.956 563.763 245.629 565.515 243C567.268 240.371 567.836 228.431 567.836 228.431L574.846 150.444C574.846 150.444 566.96 137.3 562.579 137.3C559.751 137.205 557.012 136.292 554.693 134.671Z" fill="#3498DB"/>
<path d="M566.516 242C566.516 242 557.322 242.451 551.188 244.203C545.054 245.956 514.251 244.203 514.251 244.203L497.736 309.923L465.516 495L490.516 500L534.516 366L556.516 408L625.516 484L644.516 472L587.516 382L574.847 313.428C574.847 313.428 586.238 274.872 570.466 251.213L566.516 242Z" fill="#2F2E41"/>
<path opacity="0.2" d="M549.101 179.609L540.339 244.452L531.148 244.931L549.101 179.609Z" fill="black"/>
<path d="M513.516 252C516.277 252 518.516 249.314 518.516 246C518.516 242.686 516.277 240 513.516 240C510.754 240 508.516 242.686 508.516 246C508.516 249.314 510.754 252 513.516 252Z" fill="#2F2E41"/>
<path d="M538.493 328.778C539.535 327.741 540.337 326.488 540.842 325.108C541.348 323.727 541.545 322.253 541.419 320.788C541.293 319.324 540.848 317.904 540.114 316.63C539.38 315.357 538.376 314.259 537.172 313.415L546.958 279.046L529.249 284.633L522.671 316.414C521.387 318.53 520.925 321.044 521.37 323.478C521.816 325.913 523.14 328.099 525.09 329.623C527.04 331.147 529.482 331.903 531.952 331.747C534.422 331.591 536.749 330.535 538.493 328.778Z" fill="#FFB6B6"/>
<path d="M558.176 139.435C558.176 139.435 569.977 134.327 577.141 147.188C584.306 160.048 573.966 204.746 572.516 212C571.065 219.254 539.516 311 539.516 311L522.516 305L558.176 139.435Z" fill="#3498DB"/>
<path d="M575.571 61.1582C576.612 62.7254 577.195 64.5526 577.253 66.4335C577.311 68.3144 576.841 70.1739 575.898 71.8021C574.867 69.9634 573.213 68.5531 571.234 67.8251C569.256 67.0972 567.082 67.0993 565.105 67.8312C563.128 68.563 561.477 69.9765 560.449 71.8173C559.422 73.6581 559.085 75.8052 559.499 77.8723C547.582 72.6594 541.76 69.9439 529.369 73.8983C526.553 74.7129 523.89 75.9836 521.485 77.6597C518.912 79.6142 516.907 82.2198 515.677 85.2077C514.446 88.1957 514.035 91.4579 514.486 94.6576C522.021 94.0773 521.555 95.497 529.089 94.9167L528.742 94.1154C531.758 99.6375 533.114 105.914 532.646 112.189C532.178 118.463 529.906 124.469 526.105 129.483C524.996 130.713 524.049 132.079 523.286 133.548C522.912 134.289 522.741 135.115 522.788 135.943C522.836 136.771 523.102 137.572 523.558 138.265C524.293 139.079 525.249 139.663 526.31 139.946C528.625 140.726 531.075 141.029 533.51 140.837C535.946 140.644 538.317 139.96 540.481 138.825C542.645 137.691 544.557 136.129 546.1 134.236C547.644 132.342 548.788 130.155 549.463 127.806C549.288 131.716 549.485 136.384 552.798 138.467C554.702 139.664 557.107 139.604 559.354 139.504C565.261 139.241 571.168 138.979 577.076 138.716C574.849 137.423 573.991 134.54 574.255 131.979C574.519 129.417 575.673 127.049 576.617 124.653C581.856 111.346 577.885 97.2559 570.516 85C576.137 85.2483 584.201 78.9868 584.804 73.3921C585.013 70.5794 584.192 67.7865 582.493 65.5351C580.794 63.2838 578.333 61.728 575.571 61.1582Z" fill="#2F2E41"/>
<path d="M726.692 531.958H0V534.198H726.692V531.958Z" fill="#CACACA"/>
</g>
<defs>
<clipPath id="clip0_352_1232">
<rect width="726.692" height="534.198" fill="white"/>
</clipPath>
</defs>
</svg>
