<svg width="390" height="552" viewBox="0 0 390 552" fill="none" xmlns="http://www.w3.org/2000/svg">
<g clip-path="url(#clip0_330_1060)">
<path d="M5.35604e-06 550.337C-0.000462846 550.493 0.0297696 550.647 0.0889641 550.791C0.148159 550.935 0.235162 551.066 0.345007 551.177C0.454852 551.287 0.58536 551.375 0.729131 551.435C0.872903 551.495 1.02712 551.526 1.18293 551.527H388.48C388.796 551.527 389.098 551.401 389.321 551.178C389.545 550.955 389.67 550.652 389.67 550.337C389.67 550.021 389.545 549.718 389.321 549.495C389.098 549.272 388.796 549.147 388.48 549.147H1.19001C1.03419 549.146 0.879792 549.177 0.735662 549.236C0.591532 549.295 0.460483 549.382 0.349981 549.492C0.239479 549.602 0.1517 549.732 0.0916496 549.876C0.031599 550.02 0.000461681 550.174 5.35604e-06 550.33V550.337Z" fill="#CCCCCC"/>
<path opacity="0.5" d="M154.772 387.357C158.992 386.503 163.313 386.268 167.6 386.66C167.997 386.657 168.376 386.498 168.657 386.218C168.938 385.937 169.097 385.557 169.1 385.16C169.092 384.765 168.931 384.388 168.652 384.109C168.372 383.829 167.995 383.668 167.6 383.66C163.043 383.265 158.453 383.536 153.975 384.464C153.591 384.57 153.266 384.824 153.07 385.17C152.874 385.516 152.823 385.925 152.928 386.309C153.034 386.692 153.288 387.018 153.633 387.214C153.979 387.411 154.389 387.462 154.772 387.357Z" fill="#CCCCCC"/>
<path d="M51.796 361.264C43.5473 350.292 38.7796 338.022 38.6234 324.034C38.3576 323.281 38.4017 322.452 38.746 321.731C39.0903 321.009 39.7067 320.454 40.4599 320.187L68.5761 310.238C69.3299 309.973 70.1584 310.017 70.8797 310.361C71.6011 310.705 72.1564 311.322 72.4239 312.075L85.5965 349.304C85.8623 350.058 85.8182 350.886 85.4739 351.608C85.1296 352.329 84.5133 352.884 83.7601 353.152L55.6438 363.1C54.89 363.366 54.0615 363.322 53.3402 362.977C52.6188 362.633 52.0635 362.017 51.796 361.264Z" fill="#F2F2F2"/>
<path opacity="0.2" d="M58.1438 360.6C57.39 360.866 56.5615 360.822 55.8402 360.477C55.1189 360.133 54.5635 359.517 54.2961 358.764C46.0472 347.792 41.2796 335.522 41.1233 321.534C40.9513 321.039 40.9133 320.506 41.0132 319.991L40.4599 320.187C39.7067 320.454 39.0903 321.01 38.7461 321.731C38.4018 322.452 38.3576 323.281 38.6233 324.034C38.7796 338.022 43.5472 350.292 51.7961 361.264C52.0635 362.017 52.6189 362.633 53.3402 362.977C54.0615 363.322 54.89 363.366 55.6438 363.1L83.76 353.152C84.2588 352.973 84.7016 352.666 85.0435 352.262C85.3854 351.857 85.6142 351.369 85.7067 350.848L58.1438 360.6Z" fill="black"/>
<path d="M71.3162 332.735L52.4934 339.453C52.1939 339.56 51.8642 339.544 51.5768 339.408C51.2894 339.272 51.0678 339.027 50.9609 338.727C50.854 338.428 50.8704 338.098 51.0066 337.811C51.1428 337.523 51.3876 337.302 51.6871 337.195L70.5099 330.476C70.8092 330.37 71.1383 330.387 71.425 330.523C71.7118 330.66 71.9327 330.904 72.0394 331.203C72.1462 331.502 72.13 331.831 71.9944 332.119C71.8588 332.406 71.6149 332.627 71.3162 332.735Z" fill="white"/>
<path d="M54.4236 331.782L50.2826 333.26C50.1344 333.314 49.9771 333.338 49.8196 333.33C49.6622 333.323 49.5077 333.285 49.365 333.218C49.2224 333.151 49.0943 333.057 48.9881 332.94C48.882 332.824 48.7998 332.687 48.7464 332.539C48.6929 332.391 48.6692 332.233 48.6766 332.076C48.684 331.919 48.7224 331.764 48.7895 331.622C48.8567 331.479 48.9512 331.351 49.0679 331.245C49.1845 331.139 49.3209 331.057 49.4692 331.004L49.4763 331.001L53.6174 329.523C53.9166 329.417 54.2456 329.435 54.5322 329.571C54.8188 329.707 55.0396 329.952 55.1463 330.251C55.253 330.55 55.2369 330.879 55.1014 331.166C54.9659 331.453 54.7222 331.674 54.4236 331.782Z" fill="white"/>
<path d="M74.861 342.665L56.0383 349.384C55.739 349.489 55.41 349.472 55.1234 349.336C54.8368 349.199 54.6159 348.955 54.5092 348.656C54.4025 348.357 54.4187 348.028 54.5542 347.741C54.6897 347.454 54.9334 347.232 55.232 347.125L74.0548 340.406C74.3539 340.299 74.6833 340.314 74.9708 340.45C75.2583 340.585 75.4804 340.829 75.5881 341.128C75.6959 341.427 75.6806 341.756 75.5456 342.044C75.4106 342.332 75.167 342.554 74.8682 342.662L74.861 342.665Z" fill="white"/>
<path d="M73.0886 337.7L54.2658 344.419C53.9664 344.526 53.6366 344.51 53.3491 344.374C53.0615 344.238 52.8397 343.994 52.7324 343.694C52.6251 343.395 52.6412 343.065 52.777 342.777C52.9129 342.49 53.1574 342.268 53.4568 342.161L53.4595 342.16L72.2822 335.441C72.5815 335.335 72.9106 335.352 73.1974 335.488C73.4841 335.625 73.7051 335.869 73.8118 336.168C73.9185 336.467 73.9023 336.797 73.7667 337.084C73.6311 337.371 73.3873 337.592 73.0886 337.7Z" fill="white"/>
<path d="M53.7695 320.572C56.531 320.572 58.7695 318.333 58.7695 315.572C58.7695 312.81 56.531 310.572 53.7695 310.572C51.0081 310.572 48.7695 312.81 48.7695 315.572C48.7695 318.333 51.0081 320.572 53.7695 320.572Z" fill="#CCCCCC"/>
<path d="M236.77 99.6116C236.85 106.932 239.18 122.172 237.51 129.342L237.24 128.742C235.852 129.842 234.377 130.829 232.83 131.692C231.714 128.977 230.045 126.525 227.93 124.492C228.208 127.856 227.811 131.243 226.76 134.452C220.51 136.702 209.54 129.612 202.74 129.462C191.8 129.212 181.14 126.492 170.69 123.612C166.98 122.592 162.9 121.262 161.22 118.182C159.54 115.102 162.547 111.777 162.35 108.302C160.949 83.546 172.74 79.3964 183.96 72.7816C186.429 71.3259 187.64 68.1916 190.43 66.9716C194.3 65.2816 198.91 66.0916 203.12 66.9416C202.074 66.5971 201.135 65.9893 200.392 65.1767C199.65 64.364 199.129 63.3739 198.88 62.3016C198.704 61.2506 198.822 60.1715 199.221 59.1833C199.62 58.1952 200.284 57.3364 201.14 56.7016C203.46 54.9116 206.92 54.6916 209.88 55.4516C212.739 56.3459 215.444 57.6748 217.9 59.3916C219.567 60.3061 221.057 61.5118 222.3 62.9516C222.885 63.633 223.249 64.4768 223.342 65.3703C223.435 66.2638 223.253 67.1644 222.82 67.9516C222.286 68.6264 221.607 69.1721 220.833 69.5478C220.059 69.9235 219.21 70.1197 218.35 70.1216C217.024 70.1602 215.699 70.0223 214.41 69.7116C220.32 71.1695 225.646 74.3924 229.68 78.9516C234.69 84.7816 236.68 92.2916 236.77 99.6116Z" fill="#2F2E41"/>
<path d="M61.9699 170.156C62.9868 172.314 64.8056 173.991 67.0395 174.828C69.2734 175.666 71.7459 175.599 73.9311 174.641C74.3722 174.44 74.7958 174.202 75.1977 173.93L100.947 192.848L115.143 183.16L77.0683 161.058C75.8133 159.479 74.0709 158.36 72.1129 157.875C70.155 157.39 68.0916 157.567 66.2448 158.379C65.1984 158.85 64.2551 159.523 63.4689 160.36C62.6826 161.196 62.0688 162.179 61.6624 163.252C61.256 164.326 61.065 165.469 61.1003 166.616C61.1357 167.763 61.3966 168.892 61.8683 169.939C61.9012 170.012 61.935 170.084 61.9699 170.156Z" fill="#FFB6B6"/>
<path d="M327.36 152.988C324.992 153.283 322.833 154.49 321.342 156.352C319.851 158.215 319.146 160.586 319.376 162.96C319.431 163.442 319.525 163.919 319.658 164.385L293.668 182.971L298.46 199.477L331.309 170.167C333.2 169.466 334.806 168.158 335.876 166.448C336.946 164.738 337.42 162.722 337.223 160.714C337.1 159.573 336.754 158.467 336.204 157.46C335.654 156.452 334.911 155.563 334.017 154.843C333.123 154.123 332.096 153.586 330.995 153.263C329.893 152.939 328.739 152.836 327.598 152.959C327.518 152.967 327.439 152.977 327.36 152.988Z" fill="#FFB6B6"/>
<path d="M138.897 533.902L130.527 533.831L126.823 500.797L139.175 500.901L138.897 533.902Z" fill="#FFB6B6"/>
<path d="M112.089 547.21C112.082 548.203 112.468 549.157 113.163 549.865C113.859 550.572 114.807 550.975 115.799 550.985L132.439 551.124L135.352 545.219L136.422 551.154L142.701 551.211L141.115 530.043L138.931 529.898L130.021 529.284L127.146 529.091L127.096 535.08L113.729 544.147C113.228 544.487 112.817 544.943 112.532 545.477C112.246 546.01 112.094 546.605 112.089 547.21Z" fill="#2F2E41"/>
<path d="M249.221 496.825L242.388 501.657L220.08 477.013L230.165 469.88L249.221 496.825Z" fill="#FFB6B6"/>
<path d="M235.241 523.288C235.815 524.098 236.686 524.647 237.664 524.815C238.642 524.983 239.646 524.756 240.457 524.184L254.042 514.574L252.957 508.08L257.292 512.272L262.421 508.649L248.767 492.397L246.909 493.555L239.319 498.263L236.874 499.786L240.332 504.676L234.782 519.844C234.574 520.413 234.507 521.023 234.587 521.623C234.667 522.223 234.891 522.794 235.241 523.288Z" fill="#2F2E41"/>
<path d="M145.174 266.074L169.485 209.619H225.481L209.33 268.537L145.174 266.074Z" fill="#FFB6B6"/>
<path d="M93.7721 534.155C93.3073 534.176 92.8471 534.054 92.454 533.805C92.0608 533.557 91.7537 533.193 91.5742 532.764C91.3947 532.334 91.3515 531.86 91.4504 531.405C91.5494 530.951 91.7857 530.538 92.1274 530.222L92.2829 529.604C92.2624 529.554 92.2418 529.505 92.2211 529.455C91.7528 528.349 90.9682 527.406 89.9657 526.745C88.9632 526.083 87.7876 525.732 86.5865 525.737C85.3854 525.741 84.2124 526.101 83.2149 526.77C82.2173 527.439 81.4397 528.387 80.9797 529.497C79.1411 533.925 76.8003 538.361 76.2239 543.043C75.97 545.112 76.0771 547.21 76.5404 549.243C72.2221 539.823 69.9797 529.585 69.9653 519.223C69.9643 516.622 70.1088 514.024 70.398 511.44C70.637 509.321 70.9686 507.218 71.3927 505.129C73.7073 493.798 78.6767 483.177 85.8928 474.14C89.3855 472.234 92.21 469.303 93.9858 465.743C94.6291 464.463 95.0838 463.097 95.3357 461.687C94.9417 461.739 93.8502 455.738 94.1473 455.37C93.5983 454.537 92.6156 454.123 92.0159 453.31C89.0336 449.266 84.9247 449.972 82.7797 455.467C78.1975 457.78 78.1531 461.615 80.9647 465.304C82.7535 467.651 82.9992 470.826 84.5688 473.339C84.4073 473.545 84.2394 473.746 84.0779 473.952C81.1262 477.748 78.5535 481.823 76.3969 486.121C76.9214 481.307 76.2954 476.436 74.5705 471.911C72.8223 467.694 69.5456 464.142 66.66 460.496C65.8968 459.517 64.8604 458.786 63.6818 458.395C62.5031 458.005 61.2352 457.972 60.0382 458.302C58.8412 458.632 57.7689 459.31 56.9569 460.249C56.1449 461.188 55.6295 462.347 55.476 463.58C55.4701 463.633 55.4643 463.687 55.4587 463.741C55.8873 463.983 56.3069 464.239 56.7174 464.511C57.233 464.855 57.6326 465.348 57.8637 465.923C58.0949 466.499 58.1468 467.13 58.0126 467.736C57.8785 468.341 57.5645 468.892 57.1119 469.316C56.6594 469.74 56.0893 470.018 55.4763 470.112L55.4135 470.122C55.5662 471.667 55.8361 473.198 56.2209 474.701C52.5191 489.017 60.511 494.231 71.9223 494.466C72.1742 494.595 72.4197 494.724 72.6716 494.847C70.5048 500.987 69.1456 507.383 68.6283 513.874C68.3355 517.704 68.3527 521.551 68.68 525.378L68.6606 525.242C67.8338 520.987 65.5638 517.147 62.234 514.372C57.2884 510.309 50.3012 508.813 44.9658 505.548C44.3987 505.183 43.7394 504.989 43.0656 504.987C42.3917 504.986 41.7315 505.177 41.1627 505.538C40.5939 505.899 40.1403 506.416 39.8553 507.027C39.5704 507.637 39.466 508.317 39.5545 508.985L39.5764 509.127C40.3717 509.451 41.1461 509.824 41.8951 510.245C42.3236 510.486 42.7432 510.743 43.1537 511.014C43.6694 511.359 44.069 511.851 44.3001 512.427C44.5312 513.002 44.5831 513.634 44.4489 514.24C44.3148 514.845 44.0008 515.396 43.5483 515.82C43.0957 516.244 42.5256 516.522 41.9126 516.616L41.8498 516.626C41.8046 516.632 41.7658 516.639 41.7207 516.645C43.0796 519.89 44.987 522.877 47.3592 525.475C49.6739 537.972 59.6152 539.157 70.2495 535.518H70.2559C71.4227 540.588 73.1132 545.524 75.3002 550.244H93.3204C93.3851 550.044 93.4432 549.837 93.5014 549.637C91.8334 549.742 90.1588 549.642 88.5151 549.34C89.8521 547.7 91.1891 546.046 92.5261 544.406C92.5559 544.375 92.5839 544.343 92.6101 544.309C93.2882 543.469 93.9729 542.636 94.6511 541.796L94.6514 541.795C94.6876 539.221 94.3916 536.653 93.7721 534.155Z" fill="#F2F2F2"/>
<path d="M288.767 534.155C289.232 534.176 289.692 534.054 290.085 533.805C290.479 533.557 290.786 533.193 290.965 532.763C291.145 532.334 291.188 531.86 291.089 531.405C290.99 530.951 290.754 530.537 290.412 530.222L290.256 529.603C290.277 529.554 290.298 529.505 290.318 529.455C290.786 528.349 291.571 527.406 292.574 526.744C293.576 526.083 294.752 525.732 295.953 525.737C297.154 525.741 298.327 526.101 299.324 526.77C300.322 527.439 301.1 528.387 301.56 529.497C303.398 533.925 305.739 538.361 306.315 543.043C306.569 545.112 306.462 547.21 305.999 549.243C310.317 539.823 312.56 529.585 312.574 519.222C312.575 516.622 312.431 514.024 312.141 511.44C311.902 509.321 311.571 507.218 311.147 505.129C308.832 493.798 303.863 483.177 296.647 474.14C293.154 472.234 290.329 469.303 288.554 465.743C287.91 464.463 287.456 463.097 287.204 461.687C287.598 461.739 288.689 455.738 288.392 455.37C288.941 454.537 289.924 454.123 290.523 453.31C293.506 449.266 297.615 449.972 299.76 455.467C304.342 457.78 304.386 461.615 301.575 465.304C299.786 467.651 299.54 470.826 297.971 473.339C298.132 473.545 298.3 473.746 298.462 473.952C301.413 477.748 303.986 481.823 306.143 486.121C305.618 481.307 306.244 476.436 307.969 471.911C309.717 467.694 312.994 464.142 315.879 460.496C316.643 459.517 317.679 458.786 318.858 458.395C320.036 458.005 321.304 457.972 322.501 458.302C323.698 458.632 324.77 459.31 325.582 460.249C326.394 461.188 326.91 462.347 327.063 463.58C327.069 463.633 327.075 463.687 327.081 463.741C326.652 463.983 326.232 464.239 325.822 464.511C325.306 464.855 324.907 465.348 324.676 465.923C324.444 466.499 324.393 467.131 324.527 467.736C324.661 468.342 324.975 468.892 325.427 469.316C325.88 469.741 326.45 470.018 327.063 470.112L327.126 470.122C326.973 471.667 326.703 473.198 326.318 474.701C330.02 489.017 322.028 494.231 310.617 494.466C310.365 494.595 310.12 494.724 309.868 494.847C312.035 500.987 313.394 507.383 313.911 513.874C314.204 517.704 314.187 521.551 313.859 525.378L313.879 525.242C314.706 520.987 316.975 517.147 320.305 514.372C325.251 510.309 332.238 508.813 337.574 505.547C338.141 505.183 338.8 504.989 339.474 504.987C340.148 504.986 340.808 505.177 341.377 505.538C341.945 505.899 342.399 506.416 342.684 507.027C342.969 507.637 343.073 508.317 342.985 508.985L342.963 509.127C342.168 509.451 341.393 509.824 340.644 510.245C340.216 510.486 339.796 510.743 339.386 511.014C338.87 511.359 338.47 511.851 338.239 512.427C338.008 513.002 337.956 513.634 338.09 514.24C338.224 514.845 338.538 515.396 338.991 515.82C339.444 516.244 340.014 516.522 340.627 516.616L340.689 516.626C340.735 516.632 340.773 516.639 340.819 516.645C339.46 519.89 337.552 522.877 335.18 525.474C332.865 537.972 322.924 539.157 312.29 535.518H312.283C311.117 540.588 309.426 545.524 307.239 550.244H289.219C289.154 550.044 289.096 549.837 289.038 549.637C290.706 549.742 292.38 549.642 294.024 549.34C292.687 547.7 291.35 546.046 290.013 544.405C289.983 544.375 289.955 544.342 289.929 544.309C289.251 543.469 288.566 542.636 287.888 541.796L287.888 541.795C287.852 539.221 288.148 536.653 288.767 534.155Z" fill="#F2F2F2"/>
<path d="M145.175 261.834L121.038 312.186L122.76 512.843H143.434C143.434 512.843 147.454 507.422 147.454 503.624C147.454 499.825 140.616 499.274 145.175 494.612C149.733 489.949 151.252 488.43 151.252 483.872V410.947L167.553 340.256L165.83 417.93L224.405 487.839L238.05 474.194C238.05 474.194 242.04 472.435 238.05 468.657C234.06 464.879 231.571 471.551 231.296 460.998C231.021 450.445 233.3 452.724 231.021 450.445C228.742 448.166 196.84 410.083 196.84 410.083C196.84 410.083 225.703 287.109 211.268 263.558L145.175 261.834Z" fill="#2F2E41"/>
<path d="M212.788 267.357C212.788 267.357 150.492 245.325 155.051 233.17C159.609 221.015 167.266 223.354 158.119 219.526C148.973 215.697 142.913 214.937 148.602 209.62C154.291 204.302 162.648 198.984 162.648 193.666C162.648 188.348 169.485 146.564 169.485 146.564H180.43L191.516 127.572H207.177L215.067 145.045H231.727L232.54 171.634C232.54 171.634 233.617 223.001 228.52 225.047C223.424 227.093 218.866 227.093 223.424 231.651C227.982 236.209 230.578 238.566 228.52 242.705C226.463 246.845 212.788 267.357 212.788 267.357Z" fill="#E6E6E6"/>
<path d="M221.904 152.642L231.727 145.045C231.727 145.045 248.494 145.045 250.773 154.161C253.052 163.278 266.77 185.572 266.77 185.572C266.77 185.572 280.401 177.712 285.719 177.712C291.037 177.712 294.836 181.511 294.836 176.952C294.836 172.394 291.797 171.634 296.355 171.634C300.913 171.634 313.068 167.076 313.068 167.076L326.034 180.042C326.034 180.042 324.464 192.146 319.146 191.387C313.828 190.627 310.789 186.829 310.789 191.387C310.789 195.945 313.828 202.782 306.991 203.542C300.154 204.302 254.571 215.697 254.571 215.697L223.424 170.115L221.904 152.642Z" fill="#E6E6E6"/>
<path d="M182.4 152.642L172.578 145.045C172.578 145.045 155.81 145.045 153.531 154.161C151.252 163.278 136.77 185.572 136.77 185.572C136.77 185.572 123.903 177.712 118.585 177.712C113.267 177.712 109.469 181.511 109.469 176.952C109.469 172.394 112.507 171.634 107.949 171.634C103.391 171.634 91.2358 167.076 91.2358 167.076L78.27 180.042C78.27 180.042 79.8403 192.146 85.1582 191.387C90.4761 190.627 93.5149 186.828 93.5149 191.387C93.5149 195.945 90.4761 202.782 97.3134 203.542C104.151 204.302 149.733 215.697 149.733 215.697L180.881 170.115L182.4 152.642Z" fill="#E6E6E6"/>
<path d="M197.525 123.446C210.915 123.446 221.769 112.591 221.769 99.2016C221.769 85.812 210.915 74.9575 197.525 74.9575C184.136 74.9575 173.281 85.812 173.281 99.2016C173.281 112.591 184.136 123.446 197.525 123.446Z" fill="#FFB6B6"/>
<path d="M223.98 95.5418C221.13 98.9918 216.89 98.8118 213.12 98.2618C211.93 98.0918 210.74 97.9017 209.55 97.6817C209.34 97.0117 209.1 96.3418 208.83 95.6918C207.714 92.9776 206.045 90.5255 203.93 88.4917C204.153 91.1507 203.947 93.8282 203.32 96.4218C201.11 95.9118 198.91 95.3417 196.72 94.7117C194.782 94.3967 193.04 93.3493 191.852 91.786C190.665 90.2226 190.123 88.2629 190.34 86.3118C187.19 88.7118 183.76 90.7917 180.16 90.8317C178.131 90.7791 176.172 90.0778 174.57 88.8307C172.968 87.5836 171.808 85.8562 171.26 83.9017C170.28 80.9017 170.43 77.4417 170.83 74.2017C171.31 70.3517 172.39 66.1217 174.99 64.5717C177.08 63.3117 179.49 64.2117 181.64 65.2317C186.377 67.505 190.867 70.2595 195.04 73.4517L195.09 74.5018C196.17 69.3318 199.74 65.3418 203.63 64.9418C206.25 64.6818 208.81 65.8918 211.28 67.1118C214.508 68.536 217.51 70.4261 220.19 72.7218C223.217 75.4755 225.32 79.0973 226.21 83.0917C227.14 87.4218 226.44 92.5618 223.98 95.5418Z" fill="#2F2E41"/>
<path d="M199.981 61.896C200.229 61.9168 199.619 61.7768 199.817 61.86C199.72 61.8156 199.626 61.7633 199.537 61.7036C199.522 61.6939 199.325 61.5346 199.454 61.6455C199.157 61.4146 198.934 61.1029 198.811 60.7478C198.535 59.885 198.407 58.982 198.432 58.0766C198.481 56.8868 198.278 55.6999 197.836 54.594C197.705 54.2945 197.505 54.0301 197.253 53.8223C197.001 53.6145 196.703 53.4691 196.384 53.398C196.065 53.3268 195.734 53.3319 195.417 53.4128C195.1 53.4937 194.807 53.6482 194.561 53.8637C193.743 54.6661 193.678 56.0216 193.62 57.0998C193.558 58.2192 193.676 59.3413 193.971 60.4228C194.479 62.2012 195.492 63.7936 196.889 65.0059C198.502 66.4185 200.527 67.2735 202.665 67.4441C202.958 67.4375 203.244 67.3457 203.486 67.1798C203.729 67.0139 203.917 66.781 204.03 66.5096C204.142 66.2382 204.173 65.94 204.119 65.6513C204.065 65.3625 203.928 65.0958 203.725 64.8834L201.041 62.3353C200.76 62.054 200.378 61.896 199.981 61.896C199.583 61.896 199.201 62.054 198.92 62.3353C198.639 62.6166 198.481 62.9981 198.481 63.3959C198.481 63.7938 198.639 64.1753 198.92 64.4566L201.604 67.0048L202.665 64.4441C202.222 64.4042 201.785 64.3149 201.361 64.1778C200.903 64.0504 200.464 63.8582 200.06 63.6073C199.663 63.39 199.291 63.1302 198.951 62.8324C198.733 62.641 198.525 62.4387 198.328 62.2263C198.257 62.1491 198.186 62.0706 198.118 61.9907C198.123 61.9965 197.835 61.6357 197.959 61.8007C197.648 61.3763 197.378 60.9239 197.152 60.4494C197.072 60.2813 197.007 60.107 196.955 59.9282C196.86 59.6341 196.783 59.3346 196.723 59.0314C196.608 58.3943 196.574 57.7455 196.62 57.0999C196.633 56.8261 196.66 56.5531 196.702 56.2822C196.74 56.1393 196.768 55.994 196.786 55.8473C196.791 55.4831 196.736 56.0418 196.546 56.1266L195.789 56.3314C195.666 56.3214 195.546 56.2837 195.439 56.2212C195.333 56.1587 195.241 56.073 195.172 55.9703C195.141 55.8451 195.149 55.8673 195.199 56.0369C195.256 56.236 195.3 56.4385 195.331 56.6432C195.389 57.119 195.422 57.5975 195.431 58.0767C195.441 59.0919 195.559 60.1032 195.783 61.0934C195.993 62.0884 196.512 62.9917 197.266 63.6745C198.02 64.3573 198.97 64.7848 199.98 64.896C200.377 64.8928 200.757 64.7338 201.038 64.4532C201.318 64.1725 201.477 63.7929 201.48 63.396C201.473 63.0007 201.312 62.6237 201.032 62.3441C200.753 62.0644 200.376 61.9039 199.981 61.896Z" fill="#2F2E41"/>
<path d="M323.796 159.263C315.547 148.291 310.78 136.022 310.623 122.034C310.358 121.28 310.402 120.452 310.746 119.731C311.09 119.009 311.707 118.454 312.46 118.186L340.576 108.238C341.33 107.972 342.158 108.016 342.88 108.361C343.601 108.705 344.156 109.321 344.424 110.075L357.597 147.304C357.862 148.058 357.818 148.886 357.474 149.607C357.13 150.329 356.513 150.884 355.76 151.151L327.644 161.1C326.89 161.366 326.062 161.321 325.34 160.977C324.619 160.633 324.064 160.017 323.796 159.263Z" fill="#3498DB"/>
<path opacity="0.2" d="M330.144 158.6C329.39 158.866 328.562 158.822 327.841 158.477C327.119 158.133 326.564 157.517 326.297 156.764C318.048 145.792 313.28 133.522 313.124 119.534C312.952 119.039 312.914 118.506 313.014 117.991L312.46 118.187C311.707 118.454 311.091 119.009 310.747 119.731C310.402 120.452 310.358 121.281 310.624 122.034C310.78 136.022 315.548 148.292 323.797 159.264C324.064 160.017 324.619 160.633 325.341 160.977C326.062 161.322 326.89 161.366 327.644 161.1L355.761 151.152C356.259 150.973 356.702 150.666 357.044 150.262C357.386 149.857 357.615 149.369 357.707 148.848L330.144 158.6Z" fill="black"/>
<path d="M343.316 130.735L324.493 137.454C324.194 137.56 323.864 137.544 323.577 137.408C323.289 137.272 323.068 137.027 322.961 136.727C322.854 136.428 322.87 136.098 323.007 135.811C323.143 135.523 323.388 135.302 323.687 135.195L342.51 128.476C342.658 128.423 342.815 128.4 342.973 128.408C343.13 128.416 343.284 128.454 343.427 128.522C343.569 128.589 343.696 128.684 343.802 128.801C343.908 128.918 343.989 129.054 344.042 129.202C344.095 129.351 344.119 129.508 344.111 129.665C344.103 129.822 344.064 129.977 343.997 130.119C343.929 130.261 343.834 130.389 343.718 130.495C343.601 130.6 343.464 130.682 343.316 130.735Z" fill="white"/>
<path d="M326.424 129.782L322.283 131.26C322.135 131.313 321.977 131.337 321.82 131.329C321.663 131.321 321.509 131.283 321.366 131.215C321.224 131.148 321.096 131.054 320.99 130.937C320.884 130.82 320.803 130.684 320.749 130.536C320.696 130.387 320.673 130.23 320.681 130.073C320.688 129.916 320.727 129.761 320.794 129.619C320.861 129.477 320.956 129.349 321.073 129.243C321.189 129.137 321.326 129.055 321.474 129.002L321.477 129.001L325.618 127.523C325.917 127.417 326.246 127.433 326.534 127.57C326.821 127.706 327.042 127.951 327.149 128.25C327.256 128.549 327.239 128.879 327.103 129.166C326.967 129.453 326.723 129.675 326.424 129.782Z" fill="white"/>
<path d="M346.861 140.665L328.038 147.384C327.739 147.491 327.409 147.475 327.121 147.339C326.834 147.203 326.612 146.959 326.505 146.659C326.398 146.36 326.414 146.03 326.549 145.742C326.685 145.455 326.93 145.233 327.229 145.126L327.232 145.125L346.055 138.406C346.354 138.3 346.684 138.316 346.971 138.452C347.258 138.589 347.479 138.833 347.586 139.133C347.693 139.432 347.677 139.761 347.541 140.049C347.405 140.336 347.16 140.558 346.861 140.665Z" fill="white"/>
<path d="M345.089 135.7L326.266 142.418C326.118 142.472 325.96 142.495 325.803 142.487C325.646 142.48 325.491 142.441 325.349 142.374C325.207 142.307 325.079 142.212 324.973 142.095C324.867 141.979 324.785 141.842 324.732 141.694C324.679 141.546 324.656 141.389 324.664 141.231C324.671 141.074 324.71 140.92 324.777 140.777C324.844 140.635 324.939 140.507 325.056 140.401C325.172 140.296 325.309 140.214 325.457 140.161L325.459 140.16L344.282 133.441C344.43 133.388 344.588 133.364 344.745 133.372C344.902 133.38 345.057 133.418 345.199 133.486C345.341 133.553 345.469 133.647 345.575 133.764C345.681 133.881 345.763 134.017 345.816 134.165C345.869 134.314 345.892 134.471 345.884 134.628C345.877 134.785 345.838 134.94 345.771 135.082C345.704 135.224 345.609 135.352 345.492 135.458C345.376 135.564 345.239 135.646 345.091 135.699L345.089 135.7Z" fill="white"/>
<path d="M325.77 118.572C328.531 118.572 330.77 116.333 330.77 113.572C330.77 110.81 328.531 108.572 325.77 108.572C323.008 108.572 320.77 110.81 320.77 113.572C320.77 116.333 323.008 118.572 325.77 118.572Z" fill="#3F3D56"/>
<path d="M78.8713 31.819C83.907 19.0494 91.8696 8.56776 103.709 1.11723C104.213 0.496394 104.942 0.100611 105.737 0.0166914C106.532 -0.0672284 107.327 0.167576 107.949 0.6696L131.136 19.4278C131.757 19.9313 132.153 20.6604 132.237 21.4553C132.32 22.2501 132.086 23.0458 131.584 23.6678L106.746 54.3696C106.242 54.9905 105.513 55.3863 104.718 55.4702C103.923 55.5541 103.128 55.3193 102.506 54.8173L79.3189 36.059C78.6981 35.5556 78.3023 34.8265 78.2184 34.0316C78.1344 33.2367 78.3692 32.441 78.8713 31.819Z" fill="#3498DB"/>
<path opacity="0.2" d="M82.7574 36.8819C82.1365 36.3785 81.7408 35.6494 81.6568 34.8545C81.5729 34.0596 81.8077 33.2639 82.3098 32.6419C87.3455 19.8722 95.3081 9.39059 107.148 1.94006C107.48 1.53409 107.914 1.22318 108.406 1.03877L107.949 0.669612C107.327 0.167596 106.532 -0.0672239 105.737 0.0166879C104.942 0.1006 104.213 0.496392 103.709 1.11721C91.8696 8.56776 83.907 19.0493 78.8713 31.8191C78.3692 32.441 78.1344 33.2367 78.2184 34.0316C78.3023 34.8265 78.6981 35.5556 79.3189 36.0591L102.506 54.8173C102.919 55.1491 103.412 55.3658 103.936 55.4455C104.459 55.5252 104.995 55.465 105.488 55.271L82.7574 36.8819Z" fill="black"/>
<path d="M113.397 33.5314L97.8241 21.0042C97.5772 20.8046 97.4196 20.5152 97.3857 20.1995C97.3519 19.8837 97.4447 19.5675 97.6437 19.3201C97.8427 19.0727 98.1318 18.9143 98.4474 18.8797C98.763 18.8451 99.0795 18.9371 99.3274 19.1355L114.9 31.6627C115.147 31.8623 115.305 32.1517 115.338 32.4674C115.372 32.7831 115.279 33.0993 115.08 33.3466C114.881 33.594 114.592 33.7524 114.277 33.787C113.961 33.8216 113.645 33.7297 113.397 33.5314Z" fill="white"/>
<path d="M105.372 18.6359L101.946 15.8799C101.7 15.6802 101.542 15.3908 101.509 15.0753C101.475 14.7598 101.568 14.4438 101.767 14.1966C101.966 13.9493 102.254 13.791 102.57 13.7562C102.885 13.7215 103.202 13.8132 103.449 14.0112L106.875 16.7672C107.122 16.9669 107.28 17.2563 107.313 17.5719C107.347 17.8874 107.254 18.2035 107.055 18.4508C106.856 18.6981 106.567 18.8565 106.252 18.8912C105.937 18.9259 105.62 18.8341 105.372 18.6359Z" fill="white"/>
<path d="M106.788 41.7467L91.2153 29.2196C90.9684 29.02 90.8107 28.7305 90.7768 28.4148C90.743 28.0991 90.8358 27.7828 91.0348 27.5354C91.2338 27.288 91.5229 27.1296 91.8385 27.095C92.1542 27.0604 92.4707 27.1524 92.7186 27.3509L108.291 39.878C108.538 40.0778 108.695 40.3671 108.729 40.6826C108.762 40.9981 108.67 41.3141 108.471 41.5614C108.272 41.8086 107.983 41.9669 107.668 42.0017C107.352 42.0364 107.036 41.9447 106.788 41.7467Z" fill="white"/>
<path d="M110.092 37.6393L94.5194 25.1121C94.3965 25.0137 94.2941 24.8921 94.2181 24.7542C94.1421 24.6162 94.0941 24.4647 94.0767 24.3082C94.0416 23.9921 94.1334 23.675 94.3321 23.4266C94.5308 23.1783 94.82 23.019 95.1361 22.9839C95.4522 22.9488 95.7693 23.0407 96.0176 23.2393L96.0227 23.2434L111.595 35.7706C111.844 35.9693 112.003 36.2584 112.038 36.5745C112.073 36.8906 111.981 37.2077 111.783 37.4561C111.584 37.7044 111.295 37.8637 110.979 37.8988C110.663 37.9339 110.345 37.842 110.097 37.6434L110.092 37.6393Z" fill="white"/>
<path d="M118.845 14.5986C121.607 14.5986 123.845 12.3601 123.845 9.59863C123.845 6.83721 121.607 4.59863 118.845 4.59863C116.084 4.59863 113.845 6.83721 113.845 9.59863C113.845 12.3601 116.084 14.5986 118.845 14.5986Z" fill="#3F3D56"/>
<path d="M21.5185 181.301C9.31741 165.072 2.26537 146.924 2.03427 126.234C1.64118 125.119 1.70641 123.893 2.21567 122.826C2.72493 121.759 3.63662 120.938 4.75073 120.542L46.3386 105.827C47.4536 105.434 48.679 105.499 49.746 106.009C50.8129 106.518 51.6343 107.43 52.0299 108.544L71.5142 163.611C71.9073 164.726 71.842 165.951 71.3328 167.018C70.8235 168.085 69.9118 168.907 68.7977 169.302L27.2099 184.017C26.0949 184.41 24.8695 184.345 23.8025 183.836C22.7355 183.326 21.9141 182.415 21.5185 181.301Z" fill="#3498DB"/>
<path opacity="0.2" d="M30.9073 180.319C29.7923 180.712 28.5669 180.647 27.4999 180.138C26.433 179.629 25.6116 178.717 25.216 177.603C13.0148 161.374 5.96285 143.226 5.73166 122.536C5.4772 121.802 5.42095 121.015 5.56863 120.253L4.75024 120.542C3.63614 120.938 2.72447 121.759 2.21521 122.826C1.70594 123.893 1.64069 125.119 2.03375 126.234C2.26486 146.924 9.31683 165.072 21.518 181.301C21.9137 182.415 22.7351 183.326 23.802 183.836C24.869 184.345 26.0944 184.41 27.2094 184.017L68.7973 169.302C69.5351 169.038 70.19 168.584 70.6957 167.986C71.2014 167.387 71.5398 166.665 71.6767 165.894L30.9073 180.319Z" fill="black"/>
<path d="M50.3912 139.103L22.5498 149.041C22.3302 149.12 22.0972 149.155 21.8641 149.144C21.631 149.133 21.4024 149.076 21.1913 148.976C20.9803 148.876 20.791 148.736 20.6343 148.563C20.4775 148.39 20.3565 148.188 20.278 147.968C20.1996 147.748 20.1653 147.515 20.1771 147.282C20.1889 147.049 20.2466 146.821 20.3468 146.61C20.4471 146.399 20.5879 146.21 20.7613 146.054C20.9347 145.898 21.1372 145.777 21.3572 145.7L49.1987 135.762C49.4181 135.683 49.6507 135.649 49.8833 135.661C50.116 135.672 50.3441 135.73 50.5545 135.829C50.765 135.929 50.9538 136.069 51.1101 136.242C51.2664 136.415 51.3872 136.617 51.4655 136.836C51.5438 137.055 51.5781 137.288 51.5665 137.521C51.5549 137.753 51.4976 137.981 51.3978 138.192C51.2981 138.402 51.1578 138.591 50.9851 138.747C50.8124 138.904 50.6106 139.024 50.3912 139.103Z" fill="white"/>
<path d="M25.4048 137.693L19.2797 139.88C18.837 140.036 18.3503 140.011 17.9263 139.809C17.5024 139.607 17.1756 139.246 17.0178 138.804C16.8599 138.361 16.8839 137.875 17.0843 137.45C17.2847 137.026 17.6454 136.698 18.0871 136.539L24.2122 134.352C24.6548 134.196 25.1415 134.221 25.5655 134.423C25.9895 134.624 26.3162 134.986 26.474 135.428C26.6319 135.87 26.608 136.357 26.4075 136.782C26.2071 137.206 25.8465 137.534 25.4048 137.693Z" fill="white"/>
<path d="M55.6338 153.79L27.7924 163.728C27.3493 163.887 26.8616 163.862 26.4365 163.661C26.0114 163.459 25.6837 163.097 25.5256 162.654C25.3675 162.211 25.3918 161.723 25.5932 161.298C25.7947 160.873 26.1568 160.546 26.5998 160.387L54.4413 150.449C54.6607 150.371 54.8933 150.337 55.1259 150.348C55.3586 150.36 55.5867 150.417 55.7971 150.517C56.0076 150.617 56.1964 150.757 56.3527 150.93C56.509 151.102 56.6298 151.304 56.7081 151.524C56.7864 151.743 56.8207 151.976 56.8091 152.208C56.7975 152.441 56.7402 152.669 56.6404 152.88C56.5407 153.09 56.4004 153.279 56.2277 153.435C56.055 153.591 55.8532 153.712 55.6338 153.79Z" fill="white"/>
<path d="M53.0123 146.447L25.1708 156.385C24.9514 156.463 24.7188 156.497 24.4862 156.486C24.2535 156.474 24.0254 156.417 23.8149 156.317C23.6045 156.217 23.4157 156.077 23.2594 155.904C23.1031 155.732 22.9823 155.53 22.904 155.31C22.8257 155.091 22.7914 154.858 22.803 154.626C22.8146 154.393 22.8719 154.165 22.9717 153.955C23.0714 153.744 23.2116 153.555 23.3843 153.399C23.5571 153.243 23.7589 153.122 23.9782 153.044L51.8197 143.106C52.0391 143.027 52.2717 142.993 52.5044 143.005C52.737 143.016 52.9651 143.074 53.1756 143.173C53.3861 143.273 53.5749 143.413 53.7311 143.586C53.8874 143.759 54.0082 143.961 54.0865 144.18C54.1648 144.399 54.1991 144.632 54.1875 144.865C54.1759 145.097 54.1186 145.325 54.0188 145.536C53.9191 145.746 53.7789 145.935 53.6061 146.091C53.4334 146.248 53.2316 146.368 53.0123 146.447Z" fill="white"/>
<path d="M24.4372 121.112C28.5217 121.112 31.8329 117.801 31.8329 113.716C31.8329 109.631 28.5217 106.32 24.4372 106.32C20.3527 106.32 17.0415 109.631 17.0415 113.716C17.0415 117.801 20.3527 121.112 24.4372 121.112Z" fill="#3F3D56"/>
<path d="M295.958 448.786C282.231 448.716 269.578 445.09 258.345 436.752C257.584 436.507 256.951 435.971 256.585 435.26C256.219 434.55 256.15 433.723 256.393 432.962L265.481 404.556C265.725 403.795 266.262 403.162 266.972 402.796C267.683 402.43 268.509 402.36 269.271 402.603L306.884 414.637C307.645 414.882 308.278 415.418 308.644 416.128C309.01 416.839 309.079 417.666 308.836 418.427L299.748 446.833C299.503 447.594 298.967 448.227 298.257 448.593C297.546 448.959 296.719 449.028 295.958 448.786Z" fill="#F2F2F2"/>
<path opacity="0.2" d="M299.27 443.33C299.025 444.091 298.489 444.724 297.778 445.09C297.068 445.456 296.241 445.525 295.48 445.283C281.753 445.213 269.099 441.587 257.867 433.249C257.368 433.086 256.921 432.794 256.571 432.403L256.392 432.962C256.15 433.723 256.219 434.55 256.585 435.26C256.951 435.971 257.584 436.507 258.345 436.752C269.577 445.09 282.231 448.716 295.958 448.786C296.719 449.028 297.546 448.959 298.257 448.593C298.967 448.227 299.503 447.594 299.748 446.833L308.836 418.427C308.996 417.922 309.019 417.384 308.904 416.867C308.789 416.35 308.539 415.872 308.179 415.483L299.27 443.33Z" fill="black"/>
<path d="M285.051 415.984L279.014 435.036C278.967 435.186 278.891 435.326 278.79 435.447C278.689 435.568 278.565 435.669 278.426 435.742C278.286 435.815 278.134 435.86 277.977 435.874C277.82 435.889 277.661 435.872 277.511 435.825C277.361 435.778 277.221 435.701 277.1 435.6C276.979 435.499 276.879 435.375 276.806 435.236C276.733 435.096 276.688 434.943 276.674 434.786C276.66 434.629 276.677 434.471 276.725 434.321L276.727 434.311L282.765 415.259C282.862 414.957 283.075 414.706 283.357 414.561C283.639 414.416 283.966 414.388 284.269 414.484C284.571 414.58 284.823 414.791 284.97 415.072C285.116 415.353 285.146 415.681 285.051 415.984Z" fill="white"/>
<path d="M274.073 428.858L272.745 433.05C272.698 433.2 272.622 433.339 272.521 433.46C272.42 433.581 272.296 433.681 272.157 433.754C272.017 433.827 271.865 433.872 271.708 433.886C271.551 433.9 271.393 433.883 271.242 433.837C271.092 433.79 270.953 433.713 270.832 433.613C270.711 433.512 270.611 433.388 270.538 433.248C270.465 433.109 270.42 432.956 270.406 432.8C270.392 432.643 270.408 432.485 270.455 432.334L270.458 432.325L271.787 428.134C271.834 427.983 271.91 427.844 272.011 427.723C272.111 427.602 272.235 427.502 272.375 427.429C272.514 427.356 272.667 427.311 272.824 427.297C272.98 427.283 273.138 427.3 273.289 427.347C273.439 427.393 273.579 427.47 273.7 427.571C273.82 427.671 273.92 427.795 273.993 427.935C274.066 428.074 274.111 428.227 274.126 428.384C274.14 428.54 274.123 428.698 274.076 428.849L274.073 428.858Z" fill="white"/>
<path d="M295.102 419.169L289.064 438.221C289.017 438.371 288.941 438.511 288.84 438.632C288.74 438.753 288.616 438.853 288.476 438.926C288.337 438.999 288.184 439.044 288.027 439.058C287.871 439.072 287.713 439.055 287.562 439.008C287.412 438.961 287.272 438.885 287.151 438.784C287.031 438.683 286.931 438.559 286.858 438.42C286.785 438.281 286.74 438.128 286.726 437.971C286.711 437.814 286.728 437.656 286.775 437.506L286.778 437.497L292.816 418.444C292.862 418.294 292.938 418.154 293.039 418.033C293.14 417.911 293.264 417.811 293.403 417.738C293.543 417.665 293.696 417.619 293.853 417.605C294.01 417.591 294.168 417.608 294.319 417.655C294.469 417.702 294.609 417.778 294.73 417.879C294.851 417.98 294.951 418.104 295.024 418.244C295.097 418.384 295.142 418.537 295.156 418.694C295.169 418.851 295.152 419.009 295.105 419.16L295.102 419.169Z" fill="white"/>
<path d="M290.077 417.576L284.039 436.628C283.992 436.779 283.916 436.919 283.815 437.04C283.715 437.161 283.591 437.261 283.451 437.334C283.312 437.408 283.159 437.453 283.002 437.467C282.845 437.481 282.687 437.464 282.536 437.417C282.386 437.37 282.246 437.294 282.125 437.193C282.004 437.092 281.904 436.968 281.831 436.828C281.758 436.689 281.714 436.536 281.7 436.379C281.686 436.222 281.703 436.064 281.75 435.913L281.753 435.904L287.79 416.852C287.837 416.702 287.913 416.562 288.014 416.441C288.115 416.32 288.239 416.22 288.378 416.147C288.518 416.074 288.67 416.029 288.827 416.015C288.984 416.001 289.142 416.018 289.293 416.065C289.443 416.112 289.582 416.188 289.703 416.289C289.824 416.39 289.924 416.513 289.997 416.653C290.07 416.792 290.115 416.945 290.129 417.102C290.143 417.259 290.127 417.417 290.08 417.567L290.077 417.576Z" fill="white"/>
<path d="M260.77 424.572C263.531 424.572 265.77 422.333 265.77 419.572C265.77 416.811 263.531 414.572 260.77 414.572C258.009 414.572 255.77 416.811 255.77 419.572C255.77 422.333 258.009 424.572 260.77 424.572Z" fill="#CCCCCC"/>
<path d="M370.839 224.346C371.328 222.418 369.477 220.286 366.706 219.583C363.934 218.881 361.292 219.875 360.803 221.803C360.315 223.731 362.165 225.863 364.936 226.565C367.708 227.267 370.351 226.274 370.839 224.346Z" fill="white"/>
<path d="M336.995 224.128C337.484 222.2 335.633 220.068 332.862 219.366C330.091 218.663 327.448 219.657 326.959 221.585C326.471 223.513 328.321 225.645 331.093 226.347C333.864 227.049 336.507 226.056 336.995 224.128Z" fill="#3F3D56"/>
<path d="M377.19 252.425C377.679 250.497 375.828 248.364 373.057 247.662C370.285 246.96 367.643 247.953 367.154 249.881C366.666 251.809 368.516 253.941 371.288 254.644C374.059 255.346 376.702 254.353 377.19 252.425Z" fill="#FF6584"/>
<path d="M385.079 263.012C385.28 261.216 384.43 259.648 383.181 259.508C381.932 259.368 380.756 260.711 380.556 262.507C380.355 264.302 381.205 265.871 382.454 266.011C383.703 266.15 384.879 264.808 385.079 263.012Z" fill="#E6E6E6"/>
<path d="M387.862 284.22C388.063 282.424 387.213 280.856 385.964 280.716C384.714 280.576 383.539 281.919 383.338 283.715C383.138 285.51 383.988 287.079 385.237 287.219C386.486 287.358 387.661 286.016 387.862 284.22Z" fill="#3F3D56"/>
<path d="M353.262 243.804C353.463 242.008 352.613 240.44 351.363 240.3C350.114 240.16 348.939 241.503 348.738 243.299C348.538 245.094 349.388 246.663 350.637 246.803C351.886 246.942 353.061 245.6 353.262 243.804Z" fill="#E6E6E6"/>
<path d="M370.294 237.406C370.494 235.61 369.644 234.041 368.395 233.902C367.146 233.762 365.971 235.105 365.77 236.9C365.569 238.696 366.419 240.265 367.669 240.404C368.918 240.544 370.093 239.201 370.294 237.406Z" fill="#FF6584"/>
<path d="M349.311 220.119C349.512 218.323 348.662 216.755 347.413 216.615C346.164 216.475 344.988 217.818 344.788 219.614C344.587 221.409 345.437 222.978 346.686 223.118C347.935 223.257 349.111 221.915 349.311 220.119Z" fill="#3F3D56"/>
<path d="M54.839 212.346C55.3276 210.418 53.4771 208.286 50.7057 207.584C47.9344 206.881 45.2917 207.875 44.8031 209.803C44.3145 211.731 46.1651 213.863 48.9364 214.565C51.7078 215.267 54.3505 214.274 54.839 212.346Z" fill="white"/>
<path d="M20.9953 212.128C21.4839 210.2 19.6333 208.068 16.862 207.366C14.0906 206.663 11.4479 207.657 10.9593 209.585C10.4708 211.513 12.3213 213.645 15.0927 214.347C17.864 215.049 20.5067 214.056 20.9953 212.128Z" fill="#3F3D56"/>
<path d="M61.1901 240.425C61.6787 238.497 59.8281 236.365 57.0568 235.662C54.2854 234.96 51.6427 235.953 51.1542 237.881C50.6656 239.809 52.5162 241.941 55.2875 242.644C58.0589 243.346 60.7016 242.353 61.1901 240.425Z" fill="#FF6584"/>
<path d="M69.0794 251.012C69.28 249.217 68.43 247.648 67.1808 247.508C65.9316 247.369 64.7563 248.711 64.5557 250.507C64.355 252.303 65.205 253.871 66.4542 254.011C67.7034 254.151 68.8787 252.808 69.0794 251.012Z" fill="#E6E6E6"/>
<path d="M71.8621 272.22C72.0627 270.424 71.2127 268.855 69.9635 268.716C68.7144 268.576 67.539 269.919 67.3384 271.714C67.1378 273.51 67.9878 275.079 69.2369 275.219C70.4861 275.358 71.6614 274.016 71.8621 272.22Z" fill="#3F3D56"/>
<path d="M37.262 231.804C37.4626 230.008 36.6126 228.44 35.3634 228.3C34.1143 228.16 32.9389 229.503 32.7383 231.299C32.5377 233.094 33.3877 234.663 34.6368 234.803C35.886 234.942 37.0613 233.6 37.262 231.804Z" fill="#E6E6E6"/>
<path d="M54.2937 225.406C54.4944 223.61 53.6444 222.041 52.3952 221.902C51.146 221.762 49.9707 223.105 49.77 224.9C49.5694 226.696 50.4194 228.265 51.6686 228.404C52.9177 228.544 54.0931 227.201 54.2937 225.406Z" fill="#FF6584"/>
<path d="M33.3113 208.119C33.5119 206.324 32.6619 204.755 31.4128 204.615C30.1636 204.476 28.9883 205.818 28.7876 207.614C28.587 209.41 29.437 210.978 30.6861 211.118C31.9353 211.258 33.1106 209.915 33.3113 208.119Z" fill="#3F3D56"/>
<path d="M270.796 308.264C262.547 297.292 257.78 285.022 257.623 271.034C257.358 270.281 257.402 269.452 257.746 268.731C258.09 268.009 258.707 267.454 259.46 267.187L287.576 257.238C288.33 256.973 289.158 257.017 289.88 257.361C290.601 257.705 291.156 258.322 291.424 259.075L304.597 296.304C304.862 297.058 304.818 297.886 304.474 298.608C304.13 299.329 303.513 299.884 302.76 300.152L274.644 310.1C273.89 310.366 273.062 310.322 272.34 309.977C271.619 309.633 271.064 309.017 270.796 308.264Z" fill="#F2F2F2"/>
<path opacity="0.2" d="M277.144 307.6C276.39 307.866 275.562 307.822 274.841 307.477C274.119 307.133 273.564 306.517 273.297 305.764C265.048 294.792 260.28 282.522 260.124 268.534C259.952 268.039 259.914 267.506 260.014 266.991L259.46 267.187C258.707 267.454 258.091 268.009 257.747 268.731C257.402 269.452 257.358 270.281 257.624 271.034C257.78 285.022 262.548 297.292 270.797 308.264C271.064 309.017 271.619 309.633 272.341 309.977C273.062 310.322 273.89 310.366 274.644 310.1L302.761 300.152C303.259 299.973 303.702 299.666 304.044 299.262C304.386 298.857 304.615 298.369 304.707 297.848L277.144 307.6Z" fill="black"/>
<path d="M290.316 279.735L271.493 286.454C271.194 286.56 270.864 286.544 270.577 286.408C270.289 286.272 270.068 286.027 269.961 285.727C269.854 285.428 269.87 285.098 270.007 284.811C270.143 284.523 270.388 284.302 270.687 284.195L289.51 277.476C289.658 277.423 289.815 277.4 289.973 277.408C290.13 277.416 290.284 277.454 290.427 277.522C290.569 277.589 290.696 277.684 290.802 277.801C290.908 277.918 290.989 278.054 291.042 278.202C291.095 278.351 291.119 278.508 291.111 278.665C291.103 278.822 291.064 278.977 290.997 279.119C290.929 279.261 290.834 279.389 290.718 279.495C290.601 279.6 290.464 279.682 290.316 279.735Z" fill="white"/>
<path d="M273.424 278.782L269.283 280.26C269.135 280.313 268.977 280.337 268.82 280.329C268.663 280.321 268.509 280.283 268.366 280.215C268.224 280.148 268.096 280.054 267.99 279.937C267.884 279.82 267.803 279.684 267.749 279.536C267.696 279.387 267.673 279.23 267.681 279.073C267.688 278.916 267.727 278.761 267.794 278.619C267.861 278.477 267.956 278.349 268.073 278.243C268.189 278.137 268.326 278.055 268.474 278.002L268.477 278.001L272.618 276.523C272.917 276.417 273.246 276.433 273.534 276.57C273.821 276.706 274.042 276.951 274.149 277.25C274.256 277.549 274.239 277.879 274.103 278.166C273.967 278.453 273.723 278.675 273.424 278.782Z" fill="white"/>
<path d="M293.861 289.665L275.038 296.384C274.89 296.437 274.733 296.46 274.575 296.452C274.418 296.445 274.264 296.406 274.121 296.339C273.979 296.272 273.851 296.177 273.746 296.06C273.64 295.944 273.558 295.807 273.505 295.659C273.452 295.511 273.428 295.354 273.436 295.196C273.444 295.039 273.482 294.885 273.549 294.742C273.617 294.6 273.711 294.472 273.828 294.366C273.945 294.261 274.081 294.179 274.229 294.126L274.232 294.125L293.055 287.406C293.354 287.3 293.684 287.316 293.971 287.452C294.258 287.589 294.479 287.833 294.586 288.133C294.693 288.432 294.676 288.761 294.541 289.049C294.405 289.336 294.16 289.558 293.861 289.665Z" fill="white"/>
<path d="M292.089 284.7L273.266 291.418C273.118 291.472 272.96 291.495 272.803 291.487C272.646 291.48 272.491 291.441 272.349 291.374C272.207 291.307 272.079 291.212 271.973 291.095C271.867 290.979 271.785 290.842 271.732 290.694C271.679 290.546 271.656 290.388 271.664 290.231C271.671 290.074 271.71 289.92 271.777 289.777C271.844 289.635 271.939 289.507 272.056 289.401C272.172 289.296 272.309 289.214 272.457 289.161L272.459 289.16L291.282 282.441C291.582 282.334 291.911 282.35 292.199 282.486C292.486 282.621 292.708 282.866 292.816 283.165C292.923 283.465 292.907 283.794 292.771 284.082C292.635 284.37 292.391 284.591 292.091 284.699L292.089 284.7Z" fill="white"/>
<path d="M272.77 267.572C275.531 267.572 277.77 265.333 277.77 262.572C277.77 259.81 275.531 257.572 272.77 257.572C270.008 257.572 267.77 259.81 267.77 262.572C267.77 265.333 270.008 267.572 272.77 267.572Z" fill="#CCCCCC"/>
</g>
<defs>
<clipPath id="clip0_330_1060">
<rect width="389.67" height="551.527" fill="white"/>
</clipPath>
</defs>
</svg>
