<svg width="790" height="513" viewBox="0 0 790 513" fill="none" xmlns="http://www.w3.org/2000/svg">
<g clip-path="url(#clip0_354_1404)">
<path d="M720.563 510.693L698 442.602C698 442.602 722.818 467.42 722.818 487.784L718.364 440.693C718.364 440.693 731.091 457.875 729.818 483.966C728.545 510.057 720.563 510.693 720.563 510.693Z" fill="#E6E6E6"/>
<path d="M236.021 448.693L214 382.239C214 382.239 238.222 406.461 238.222 426.335L233.874 380.376C233.874 380.376 246.295 397.145 245.053 422.608C243.811 448.072 236.021 448.693 236.021 448.693Z" fill="#E6E6E6"/>
<path d="M579.725 479.359C579.763 523.074 493.06 509.627 386.916 509.719C280.772 509.81 195.381 523.405 195.343 479.691C195.305 435.976 281.976 426.394 388.12 426.302C494.265 426.21 579.688 435.644 579.725 479.359Z" fill="#E6E6E6"/>
<path d="M790 509.693H0V511.693H790V509.693Z" fill="#3F3D56"/>
<path d="M505.336 420.322H491.459L484.855 366.797H505.336V420.322Z" fill="#A0616A"/>
<path d="M480.005 416.357H508.31V433.208H464.696V431.667C464.696 427.606 466.309 423.712 469.18 420.841C472.051 417.97 475.945 416.357 480.005 416.357Z" fill="#2F2E41"/>
<path d="M607.336 499.322H593.459L586.855 445.797H607.336V499.322Z" fill="#A0616A"/>
<path d="M582.005 495.357H610.31V512.208H566.696V510.667C566.696 506.606 568.309 502.712 571.18 499.841C574.051 496.97 577.945 495.357 582.005 495.357Z" fill="#2F2E41"/>
<path d="M671.345 340.309C672.304 339.146 672.997 337.786 673.374 336.326C673.751 334.865 673.804 333.34 673.528 331.858C673.251 330.375 672.654 328.971 671.776 327.744C670.899 326.518 669.763 325.498 668.449 324.758L636.219 193.465L615.611 202.332L653.947 329.281C652.849 331.571 652.63 334.183 653.331 336.624C654.031 339.064 655.603 341.163 657.747 342.523C659.892 343.882 662.461 344.408 664.967 344C667.473 343.592 669.742 342.279 671.345 340.309Z" fill="#A0616A"/>
<path d="M646.208 74.9636C645.058 73.7611 643.658 72.8255 642.107 72.2226C640.556 71.6197 638.892 71.3642 637.231 71.4741C635.571 71.5839 633.955 72.0565 632.497 72.8585C631.039 73.6605 629.774 74.7725 628.793 76.116L578.907 81.8431L586.496 101.085L631.864 92.5937C634.23 94.0934 637.064 94.6729 639.829 94.2225C642.595 93.7721 645.098 92.323 646.867 90.1499C648.635 87.9767 649.544 85.2305 649.423 82.4316C649.301 79.6326 648.157 76.9755 646.208 74.9636Z" fill="#A0616A"/>
<path d="M564 326.693L585.768 490.067L612.862 484.489C612.862 484.489 608.877 365.508 622.424 351.164C635.971 336.821 605 311.693 605 311.693L564 326.693Z" fill="#2F2E41"/>
<path d="M573 281.693L563 296.693C563 296.693 486 264.694 486 315.693C486 366.692 481.594 401.303 480 403.693C478.406 406.084 498.438 412.287 508 410.693C508 410.693 519.797 328.474 519 323.693C519 323.693 594.533 360.727 608.877 357.539C623.221 354.352 626.609 343.068 629 336.693C631.39 330.318 628 279.693 628 279.693L580.19 265.103L573 281.693Z" fill="#2F2E41"/>
<path d="M574.349 191.633L571.499 188.212C571.499 188.212 539.575 116.384 552.117 97.0019C564.658 77.6197 619.384 74.7694 621.095 75.9095C622.805 77.0496 617.01 91.8523 621 98.6931C621 98.6931 578.606 107.884 575.756 109.024C572.905 110.165 597.722 152.298 597.722 152.298L594.872 177.951L574.349 191.633Z" fill="#CCCCCC"/>
<path d="M630.216 156.289C630.216 156.289 600.572 159.709 599.432 159.709C598.292 159.709 597.722 152.298 597.722 152.298L571.499 188.212C571.499 188.212 558.58 292.403 562 290.693C565.421 288.983 628.506 298.805 629.076 294.244C629.646 289.684 628.506 266.881 630.216 265.741C631.926 264.601 659.859 193.913 659.859 193.913C659.859 193.913 657.009 179.091 647.318 173.961C637.627 168.83 630.216 156.289 630.216 156.289Z" fill="#CCCCCC"/>
<path d="M650.738 184.222L659.859 193.913C659.859 193.913 673.411 305.273 666 308.693C658.589 312.114 644 311.693 644 311.693L629.646 258.9L650.738 184.222Z" fill="#CCCCCC"/>
<path d="M601.73 149.236C616.221 149.236 627.969 137.489 627.969 122.998C627.969 108.506 616.221 96.7588 601.73 96.7588C587.239 96.7588 575.491 108.506 575.491 122.998C575.491 137.489 587.239 149.236 601.73 149.236Z" fill="#A0616A"/>
<path d="M595.573 127.092C595.218 121.647 588.35 121.461 582.894 121.409C577.438 121.358 570.915 121.553 567.828 117.054C565.788 114.081 566.178 109.954 567.863 106.766C569.549 103.579 572.321 101.127 575.049 98.7687C582.09 92.6798 589.347 86.6393 597.801 82.7421C606.255 78.8448 616.161 77.2701 624.929 80.3986C635.699 84.2416 650.258 104.024 651.515 115.39C652.772 126.756 648.23 138.343 640.573 146.836C632.916 155.33 615.391 151.903 604.362 154.924C611.067 145.435 606.648 128.192 595.907 123.76L595.573 127.092Z" fill="#2F2E41"/>
<path d="M361.722 466.494C396.51 466.494 424.711 438.293 424.711 403.505C424.711 368.717 396.51 340.515 361.722 340.515C326.934 340.515 298.732 368.717 298.732 403.505C298.732 438.293 326.934 466.494 361.722 466.494Z" fill="#3498DB"/>
<path d="M319.656 336.039C310.926 336.04 302.383 333.51 295.061 328.756C287.74 324.002 281.953 317.228 278.401 309.253L178.449 84.1614C175.138 76.7052 173.387 68.6507 173.303 60.4928C173.219 52.335 174.805 44.2463 177.962 36.7238C181.12 29.2013 185.782 22.4041 191.664 16.7498C197.545 11.0956 204.52 6.7038 212.161 3.84446C219.801 0.985115 227.946 -0.281393 236.094 0.122792C244.243 0.526978 252.222 2.59331 259.542 6.19478C266.863 9.79625 273.369 14.8568 278.662 21.0653C283.954 27.2738 287.921 34.4991 290.319 42.2971L362.696 277.709C364.768 284.448 365.231 291.578 364.048 298.528C362.864 305.477 360.067 312.052 355.882 317.725C351.696 323.398 346.238 328.009 339.947 331.19C333.656 334.371 326.706 336.032 319.656 336.039Z" fill="#3498DB"/>
</g>
<defs>
<clipPath id="clip0_354_1404">
<rect width="790" height="512.208" fill="white"/>
</clipPath>
</defs>
</svg>
