<svg width="560" height="466" viewBox="0 0 560 466" fill="none" xmlns="http://www.w3.org/2000/svg">
<g clip-path="url(#clip0_330_979)">
<path d="M248.906 88.4363C248.798 88.4363 248.689 88.4324 248.58 88.4256C241.406 87.9647 216.857 84.492 202.196 59.1424C201.113 57.2713 201.327 54.8905 202.729 53.2196C214.973 43.262 224.537 32.4852 230.182 20.5106C231.202 19.2957 232.731 18.6317 234.28 18.659C235.87 18.6966 237.334 19.4451 238.299 20.7127C245.26 29.8592 259.002 46.0506 272.829 51.7274C274.383 52.366 275.508 53.6619 275.916 55.285C276.321 56.8944 275.946 58.5535 274.889 59.8368L252.896 86.5418C251.908 87.743 250.435 88.4363 248.906 88.4363Z" fill="#E6E6E6"/>
<path d="M207.268 54.8277C206.893 55.275 206.825 55.9127 207.098 56.4166C220.361 80.8394 244.073 82.7555 248.692 82.8912C249.137 82.9166 249.554 82.7164 249.836 82.3736L271.671 55.8609C271.98 55.4849 272.075 55.0055 271.933 54.5426C271.79 54.0777 271.437 53.731 270.965 53.5943C256.136 49.2603 240.576 29.1861 236.161 23.1363C235.902 22.7828 235.503 22.5709 235.067 22.5562C234.618 22.5518 234.209 22.7281 233.924 23.068C227.606 35.3867 218.76 45.9998 207.268 54.8277Z" fill="white"/>
<path d="M218.263 60.5489L238.055 40.3683C239.408 38.9888 237.289 36.8657 235.934 38.247L216.142 58.4276C214.789 59.807 216.908 61.9301 218.263 60.5489Z" fill="#E6E6E6"/>
<path d="M230.209 66.2342C235.672 61.3381 240.418 55.6692 244.305 49.4488C245.331 47.8068 242.737 46.2992 241.715 47.9346C237.957 53.9485 233.368 59.38 228.088 64.1128C226.647 65.4042 228.774 67.52 230.209 66.2342Z" fill="#E6E6E6"/>
<path d="M240.975 73.0421C245.949 67.533 250.182 61.3844 253.515 54.7519C254.38 53.0314 251.793 51.5106 250.925 53.2378C247.705 59.6459 243.66 65.5968 238.854 70.9208C237.563 72.3507 239.678 74.4789 240.975 73.0421Z" fill="#E6E6E6"/>
<path d="M266.906 96.4363C266.798 96.4363 266.689 96.4324 266.58 96.4256C259.406 95.9647 234.857 92.492 220.196 67.1424C219.113 65.2713 219.327 62.8905 220.729 61.2196C232.361 51.1307 241.119 40.0986 248.182 28.5106C249.202 27.2957 250.731 26.6317 252.28 26.659C253.87 26.6966 255.334 27.4451 256.299 28.7127C263.26 37.8592 277.002 54.0506 290.829 59.7274C292.383 60.366 293.508 61.6619 293.916 63.285C294.321 64.8944 293.946 66.5535 292.889 67.8368L270.896 94.5418C269.908 95.743 268.435 96.4363 266.906 96.4363Z" fill="#E6E6E6"/>
<path d="M225.268 62.8277C224.893 63.275 224.825 63.9127 225.098 64.4166C238.361 88.8394 262.073 90.7555 266.692 90.8912C267.137 90.9166 267.554 90.7164 267.836 90.3736L289.671 63.8609C289.98 63.4849 290.075 63.0055 289.933 62.5426C289.79 62.0777 289.437 61.731 288.965 61.5943C274.136 57.2603 258.576 37.1861 254.161 31.1363C253.902 30.7828 253.503 30.5709 253.067 30.5562C252.618 30.5518 252.209 30.7281 251.924 31.068C244.355 43.6442 235.841 54.7923 225.268 62.8277Z" fill="white"/>
<path d="M236.263 68.5489L256.055 48.3683C257.408 46.9888 255.289 44.8657 253.934 46.247L234.142 66.4276C232.789 67.807 234.908 69.9301 236.263 68.5489Z" fill="#E6E6E6"/>
<path d="M248.209 74.2342C253.672 69.3381 258.418 63.6692 262.305 57.4488C263.331 55.8068 260.737 54.2992 259.715 55.9346C255.957 61.9485 251.368 67.38 246.088 72.1128C244.647 73.4042 246.774 75.52 248.209 74.2342Z" fill="#E6E6E6"/>
<path d="M258.975 81.0421C263.949 75.533 268.182 69.3844 271.515 62.7519C272.38 61.0314 269.793 59.5106 268.925 61.2378C265.705 67.6459 261.66 73.5968 256.854 78.9208C255.563 80.3507 257.678 82.4789 258.975 81.0421Z" fill="#E6E6E6"/>
<path d="M463.906 282.436C463.798 282.436 463.689 282.432 463.581 282.426C456.406 281.965 431.857 278.492 417.196 253.142C416.113 251.271 416.327 248.89 417.729 247.22L445.182 214.511C446.202 213.296 447.731 212.632 449.28 212.659C450.87 212.697 452.91 213.168 453.299 214.713C456.462 227.265 470.083 243.565 487.829 245.727C489.497 245.931 490.508 247.662 490.916 249.285C491.321 250.894 490.946 252.554 489.889 253.837L467.896 280.542C466.908 281.743 465.435 282.436 463.906 282.436Z" fill="#E6E6E6"/>
<path d="M422.268 248.828C421.893 249.275 421.825 249.913 422.098 250.417C435.361 274.839 459.073 276.755 463.692 276.891C464.137 276.917 464.554 276.716 464.836 276.374L486.671 249.861C486.98 249.485 487.075 249.005 486.933 248.543C486.79 248.078 486.456 247.617 485.965 247.594C467.089 246.709 451.927 226.296 451.161 217.136C451.124 216.7 450.503 216.571 450.067 216.556C449.618 216.552 449.209 216.728 448.924 217.068L422.268 248.828Z" fill="white"/>
<path d="M433.263 254.549L453.055 234.368C454.408 232.989 452.289 230.866 450.934 232.247L431.142 252.428C429.789 253.807 431.908 255.93 433.263 254.549Z" fill="#E6E6E6"/>
<path d="M445.209 260.234C450.672 255.338 455.418 249.669 459.305 243.449C460.331 241.807 457.737 240.299 456.715 241.935C452.957 247.948 448.368 253.38 443.088 258.113C441.647 259.404 443.774 261.52 445.209 260.234Z" fill="#E6E6E6"/>
<path d="M455.975 267.042C460.949 261.533 465.182 255.384 468.515 248.752C469.38 247.031 466.793 245.511 465.925 247.238C462.705 253.646 458.66 259.597 453.854 264.921C452.563 266.351 454.678 268.479 455.975 267.042Z" fill="#E6E6E6"/>
<path d="M381.662 456.789L369.803 456.788L364.162 411.045L381.665 411.046L381.662 456.789Z" fill="#FFB6B6"/>
<path d="M341.031 456.52C340.662 457.142 340.467 459.149 340.467 459.872C340.467 462.095 342.269 463.897 344.492 463.897H381.219C382.735 463.897 383.965 462.668 383.965 461.151V459.622C383.965 459.622 385.781 455.026 382.041 449.362C382.041 449.362 377.392 453.797 370.445 446.851L368.397 443.14L353.568 453.984L345.349 454.996C343.551 455.217 341.956 454.962 341.031 456.52Z" fill="#2F2E41"/>
<path d="M491.172 433.386L481.07 439.599L452.297 403.594L467.205 394.424L491.172 433.386Z" fill="#FFB6B6"/>
<path d="M456.424 454.446C456.435 455.169 457.321 456.981 457.7 457.597C458.865 459.49 461.344 460.081 463.237 458.916L494.518 439.672C495.81 438.878 496.213 437.186 495.418 435.895L494.617 434.592C494.617 434.592 493.757 429.726 487.603 426.862C487.603 426.862 485.967 433.075 476.41 430.799L472.721 428.711L465.774 445.718L459.303 450.886C457.888 452.017 456.396 452.635 456.424 454.446Z" fill="#2F2E41"/>
<path d="M416.634 242.841C416.047 240.281 416.092 237.795 416.642 235.735L409.497 211.708L421.131 208.553L427.127 233.267C428.517 234.869 429.638 237.08 430.225 239.641C431.566 245.491 429.611 250.949 425.858 251.833C422.104 252.717 417.975 248.691 416.634 242.841Z" fill="#FFB6B6"/>
<path d="M350.438 82.6791C350.438 82.6791 369.187 74.5183 379.656 86.3113C389.185 97.0455 408.529 129.346 406.543 132.489L425.587 222.473L411.471 226.822L374.026 123.319L350.438 82.6791Z" fill="#3498DB"/>
<path d="M329.789 216.033L339.449 328.736L362.795 433.389L387.751 430.974L375.675 316.661L383.066 215.07L329.789 216.033Z" fill="#2F2E41"/>
<path d="M331.786 240.487L391.955 336.274L460.608 418.639L481.692 405.07L418.638 308.958C408.988 266.621 398.301 227.431 378.716 215.249L331.786 240.487Z" fill="#2F2E41"/>
<path d="M335.297 240.956C332.475 240.956 329.742 239.962 327.514 238.073C324.524 235.537 322.966 231.84 323.24 227.93L328.489 177.572L326.484 122.581L326.497 122.521L332.728 92.6387C332.79 91.689 332.989 90.6836 333.31 89.7183L342.514 62.0454C344.169 57.0679 348.805 53.7236 354.051 53.7236H362.19C366.265 53.7236 370.047 55.7476 372.307 59.1382L379.432 69.8257C379.906 70.5356 380.305 71.2979 380.62 72.0913L396.349 111.79C396.848 113.05 397.132 114.376 397.193 115.73L402.073 225.905C402.236 229.563 400.764 233.063 398.037 235.509C395.326 237.94 391.709 239.016 388.122 238.462C367.582 235.29 349.605 237.884 338.14 240.619C337.193 240.845 336.24 240.956 335.297 240.956Z" fill="#3498DB"/>
<path d="M333.009 131.506L319.324 121.041C319.324 121.041 325.764 63.8839 342.669 63.8839C359.575 63.8839 368.43 54.2236 368.43 54.2236C368.43 54.2236 428.807 138.751 411.901 148.411C394.996 158.072 371.65 153.241 371.65 153.241L363.428 81.0326C362.417 77.2155 357.164 76.8022 355.569 80.4143L333.009 131.506Z" fill="#3F3D56"/>
<path d="M355.523 51.2603C368.446 51.2603 378.923 40.7837 378.923 27.8601C378.923 14.9366 368.446 4.45996 355.523 4.45996C342.599 4.45996 332.123 14.9366 332.123 27.8601C332.123 40.7837 342.599 51.2603 355.523 51.2603Z" fill="#FFB6B6"/>
<path d="M374.054 45.5501C371.943 46.3383 368.706 47.5637 366.596 48.3518C364.627 44.4275 367.039 42.3911 367.289 38.0078C367.373 36.545 367.584 35.0807 367.463 33.6205C367.342 32.1603 366.84 30.6615 365.738 29.6953C364.053 28.2174 361.247 28.4577 359.616 29.9949C357.985 31.532 357.52 34.0719 358.187 36.2117C351.771 33.4382 347.626 26.1618 348.512 19.2283C346.596 18.4772 344.631 17.716 342.574 17.6585C340.517 17.601 338.313 18.3861 337.216 20.1279C336.448 21.3493 336.294 22.8997 335.431 24.0566C334.03 25.9364 331 26.082 329.139 24.6561C327.277 23.2302 326.565 20.6389 326.962 18.3278C327.359 16.0168 324.47 11.3005 326.087 9.60241C327.19 8.444 332.666 10.0854 333.896 9.0635C335.019 8.1312 336.146 7.19581 337.384 6.42237C338.955 5.44061 340.695 4.72964 342.503 4.33014C344.215 3.95225 345.973 3.85299 347.723 3.75494C349.499 3.65539 351.956 0.118629 353.732 0.0190786C358.962 -0.274001 363.636 2.88385 368.653 4.38728C373.67 5.89071 376.827 10.208 379.604 14.6489C383.56 20.9746 382.215 27.9058 379.491 33.9543C378.818 35.4495 381.077 37.0206 380.743 38.6258C380.432 40.1179 379.034 41.1986 378.707 42.6874C378.428 43.9604 376.776 42.4855 376.382 43.7278C376.041 44.7998 375.039 45.5567 373.968 45.8989C372.896 46.241 371.749 46.2341 370.625 46.2239" fill="#2F2E41"/>
<path d="M369.031 53.623L369.855 54.2235L371.935 55.7373C378.186 60.2885 377.605 69.7889 370.845 73.5441L362.393 60.0425" fill="#3F3D56"/>
<path d="M505.027 448.046C507.093 448.175 508.235 445.608 506.672 444.112L506.516 443.494C506.537 443.445 506.557 443.395 506.578 443.346C508.667 438.364 515.748 438.398 517.819 443.387C519.658 447.816 521.999 452.251 522.575 456.933C522.834 459 522.717 461.106 522.259 463.134C526.567 453.723 528.834 443.447 528.834 433.113C528.834 430.517 528.692 427.92 528.401 425.33C528.162 423.212 527.833 421.106 527.406 419.02C525.101 407.743 520.108 397.002 512.906 388.03C509.444 386.138 506.557 383.18 504.813 379.634C504.187 378.355 503.696 376.979 503.463 375.577C503.857 375.629 504.949 369.629 504.652 369.261C505.201 368.427 506.184 368.013 506.783 367.2C509.766 363.157 513.874 363.863 516.019 369.358C520.602 371.67 520.646 375.506 517.834 379.194C516.046 381.541 515.8 384.717 514.23 387.229C514.392 387.436 514.56 387.636 514.721 387.843C517.682 391.641 520.243 395.723 522.402 400.011C521.792 395.245 522.693 389.503 524.229 385.802C525.977 381.585 529.254 378.033 532.139 374.387C535.605 370.008 542.713 371.919 543.323 377.47C543.329 377.524 543.335 377.578 543.34 377.631C542.912 377.873 542.492 378.13 542.082 378.401C539.742 379.948 540.551 383.575 543.323 384.003L543.386 384.013C543.231 385.556 542.966 387.087 542.578 388.592C546.28 402.908 538.288 408.122 526.877 408.356C526.625 408.485 526.379 408.615 526.128 408.737C527.284 411.993 528.207 415.332 528.892 418.716C529.506 421.707 529.932 424.729 530.171 427.765C530.468 431.595 530.442 435.445 530.119 439.268L530.138 439.133C530.959 434.922 533.245 430.988 536.565 428.262C541.511 424.2 548.498 422.704 553.833 419.438C556.402 417.866 559.693 419.898 559.245 422.875L559.223 423.018C558.428 423.341 557.653 423.715 556.904 424.135C556.475 424.377 556.056 424.634 555.645 424.905C553.306 426.452 554.114 430.079 556.886 430.507L556.949 430.517C556.994 430.523 557.033 430.53 557.078 430.536C555.716 433.772 553.817 436.775 551.44 439.365C549.125 451.862 539.184 453.048 528.55 449.409H528.543C527.381 454.473 525.682 459.42 523.499 464.135H505.479C505.414 463.935 505.356 463.728 505.298 463.528C506.964 463.631 508.643 463.534 510.284 463.231C508.947 461.59 507.61 459.937 506.273 458.296C506.241 458.264 506.215 458.232 506.189 458.199C505.511 457.36 504.826 456.526 504.148 455.687L504.148 455.686C504.105 453.108 504.415 450.539 505.027 448.046Z" fill="#F2F2F2"/>
<path d="M193.476 464.189C193.476 464.849 194.006 465.379 194.666 465.379H557.956C558.616 465.379 559.146 464.849 559.146 464.189C559.146 463.529 558.616 462.999 557.956 462.999H194.666C194.006 462.999 193.476 463.529 193.476 464.189Z" fill="#CCCCCC"/>
<path d="M251.018 81.472C253.129 82.8646 254.749 84.6183 255.735 86.4075L276.676 98.4039L270.676 108.201L250.08 94.9774C248.047 94.7746 245.797 93.9741 243.687 92.5815C238.866 89.4002 236.599 84.3342 238.624 81.2664C240.648 78.1986 246.198 78.2906 251.018 81.472Z" fill="#FFB6B6"/>
<path d="M349.545 68.8256C362.899 60.6359 376.319 79.3909 364.445 89.6095L364.405 89.6443L316.962 134.266L260.185 106.228L265.799 91.0897L309.787 108.515L342.785 74.2591C345.082 71.9593 347.342 70.1769 349.545 68.8256Z" fill="#3498DB"/>
<path d="M68.2949 143.332C67.1919 143.332 66.2949 144.229 66.2949 145.332V176.332C66.2949 177.435 67.1919 178.332 68.2949 178.332C69.398 178.332 70.2949 177.435 70.2949 176.332V145.332C70.2949 144.229 69.398 143.332 68.2949 143.332Z" fill="#3F3D56"/>
<path d="M87.8959 173.203C94.7792 173.203 100.359 167.74 100.359 161.002C100.359 154.264 94.7792 148.801 87.8959 148.801C81.0126 148.801 75.4326 154.264 75.4326 161.002C75.4326 167.74 81.0126 173.203 87.8959 173.203Z" fill="#3498DB"/>
<path d="M187.809 156.828H120.724C118.422 156.828 116.55 154.955 116.55 152.654C116.55 150.352 118.422 148.48 120.724 148.48H187.809C190.11 148.48 191.983 150.352 191.983 152.654C191.983 154.955 190.11 156.828 187.809 156.828Z" fill="#F2F2F2"/>
<path d="M240.162 170.955H120.724C118.422 170.955 116.55 169.082 116.55 166.781C116.55 164.479 118.422 162.607 120.724 162.607H240.162C242.463 162.607 244.336 164.479 244.336 166.781C244.336 169.082 242.463 170.955 240.162 170.955Z" fill="#F2F2F2"/>
<path d="M12.4633 239.183C19.3466 239.183 24.9266 233.721 24.9266 226.982C24.9266 220.244 19.3466 214.782 12.4633 214.782C5.58 214.782 0 220.244 0 226.982C0 233.721 5.58 239.183 12.4633 239.183Z" fill="#3498DB"/>
<path d="M112.376 222.808H45.2911C42.9897 222.808 41.1172 220.936 41.1172 218.634C41.1172 216.333 42.9897 214.46 45.2911 214.46H112.376C114.677 214.46 116.55 216.333 116.55 218.634C116.55 220.936 114.677 222.808 112.376 222.808Z" fill="#F2F2F2"/>
<path d="M129.521 279.193C136.405 279.193 141.985 273.73 141.985 266.992C141.985 260.254 136.405 254.792 129.521 254.792C122.638 254.792 117.058 260.254 117.058 266.992C117.058 273.73 122.638 279.193 129.521 279.193Z" fill="#3498DB"/>
<path d="M281.787 276.945H162.349C160.048 276.945 158.175 275.073 158.175 272.772C158.175 270.47 160.048 268.598 162.349 268.598H281.788C284.089 268.598 285.961 270.47 285.961 272.772C285.961 275.073 284.089 276.945 281.787 276.945Z" fill="#F2F2F2"/>
<path d="M252.28 51.0605C259.163 51.0605 264.743 45.5981 264.743 38.8599C264.743 32.1216 259.163 26.6592 252.28 26.6592C245.396 26.6592 239.816 32.1216 239.816 38.8599C239.816 45.5981 245.396 51.0605 252.28 51.0605Z" fill="#3498DB"/>
<path d="M481.691 255.599C488.575 255.599 494.155 250.136 494.155 243.398C494.155 236.66 488.575 231.197 481.691 231.197C474.808 231.197 469.228 236.66 469.228 243.398C469.228 250.136 474.808 255.599 481.691 255.599Z" fill="#3498DB"/>
</g>
<defs>
<clipPath id="clip0_330_979">
<rect width="559.286" height="465.379" fill="white"/>
</clipPath>
</defs>
</svg>
