<svg width="826" height="541" viewBox="0 0 826 541" fill="none" xmlns="http://www.w3.org/2000/svg">
<g clip-path="url(#clip0_353_1287)">
<path d="M803.637 539.805L804.862 539.781C804.388 526.162 802.935 512.594 800.514 499.183C795.217 470.47 786.409 451.613 774.335 443.136L773.632 444.138C801.837 463.941 803.623 539.049 803.637 539.805Z" fill="#F1F1F1"/>
<path d="M788.326 539.512L789.551 539.488C789.525 538.132 788.759 506.162 776.173 497.325L775.47 498.328C787.548 506.808 788.32 539.186 788.326 539.512Z" fill="#F1F1F1"/>
<path d="M766.664 444.249C770.046 444.249 772.788 441.507 772.788 438.125C772.788 434.742 770.046 432 766.664 432C763.281 432 760.539 434.742 760.539 438.125C760.539 441.507 763.281 444.249 766.664 444.249Z" fill="#F1F1F1"/>
<path d="M769.697 496.921C773.079 496.921 775.822 494.179 775.822 490.796C775.822 487.414 773.079 484.672 769.697 484.672C766.314 484.672 763.572 487.414 763.572 490.796C763.572 494.179 766.314 496.921 769.697 496.921Z" fill="#F1F1F1"/>
<path d="M791.181 447.921C790.567 452.645 791.205 457.448 793.03 461.849C796.218 458.285 798.308 453.876 799.047 449.152C799.787 444.429 799.145 439.592 797.198 435.225C794.115 438.857 792.04 443.235 791.181 447.921Z" fill="#F1F1F1"/>
<path d="M771.161 465.776C775.706 467.204 780.546 467.413 785.197 466.382C782.244 462.622 778.266 459.796 773.744 458.245C769.221 456.694 764.347 456.483 759.707 457.639C762.747 461.307 766.696 464.114 771.161 465.776Z" fill="#F1F1F1"/>
<path d="M770.935 512.422C774.121 513.423 777.514 513.569 780.774 512.847C778.704 510.211 775.916 508.231 772.746 507.143C769.576 506.056 766.159 505.908 762.907 506.718C765.038 509.29 767.806 511.257 770.935 512.422Z" fill="#F1F1F1"/>
<path d="M282.026 539.805L280.248 539.77C280.936 520.002 283.045 500.309 286.559 480.843C294.248 439.168 307.032 411.798 324.557 399.493L325.577 400.948C284.639 429.691 282.047 538.707 282.026 539.805Z" fill="#F1F1F1"/>
<path d="M304.25 539.38L302.472 539.345C302.51 537.376 303.621 490.973 321.889 478.147L322.91 479.602C305.379 491.91 304.258 538.907 304.25 539.38Z" fill="#F1F1F1"/>
<path d="M335.692 401.109C340.602 401.109 344.582 397.129 344.582 392.219C344.582 387.31 340.602 383.33 335.692 383.33C330.783 383.33 326.803 387.31 326.803 392.219C326.803 397.129 330.783 401.109 335.692 401.109Z" fill="#F1F1F1"/>
<path d="M331.29 477.56C336.2 477.56 340.18 473.58 340.18 468.67C340.18 463.761 336.2 459.781 331.29 459.781C326.38 459.781 322.4 463.761 322.4 468.67C322.4 473.58 326.38 477.56 331.29 477.56Z" fill="#F1F1F1"/>
<path d="M300.106 406.438C300.997 413.295 300.072 420.266 297.423 426.654C292.795 421.481 289.762 415.082 288.689 408.225C287.616 401.369 288.548 394.349 291.373 388.01C295.847 393.282 298.859 399.636 300.106 406.438Z" fill="#F1F1F1"/>
<path d="M329.164 432.355C322.567 434.427 315.541 434.73 308.79 433.234C313.077 427.777 318.85 423.675 325.414 421.423C331.979 419.172 339.054 418.866 345.789 420.544C341.377 425.868 335.644 429.941 329.164 432.355Z" fill="#F1F1F1"/>
<path d="M329.492 500.059C324.868 501.512 319.944 501.724 315.212 500.676C318.217 496.851 322.263 493.975 326.864 492.397C331.465 490.819 336.425 490.605 341.145 491.781C338.053 495.513 334.034 498.368 329.492 500.059Z" fill="#F1F1F1"/>
<path d="M144.679 161.234L140.401 135.066L128.324 132.046C128.324 132.046 118.738 129.094 116.498 148.401C114.257 167.709 115.994 203.757 115.994 203.757L89.4776 287.728C87.4414 288.696 85.7273 290.23 84.5404 292.146C83.3535 294.063 82.7441 296.281 82.7851 298.535C82.8262 300.789 83.5159 302.983 84.7718 304.855C86.0277 306.727 87.7966 308.198 89.8666 309.091C91.9366 309.984 94.22 310.261 96.4436 309.89C98.6672 309.518 100.737 308.514 102.404 306.997C104.072 305.48 105.267 303.515 105.846 301.336C106.426 299.157 106.365 296.858 105.672 294.713L140.15 215.835L144.679 161.234Z" fill="#FFB7B7"/>
<path d="M218.122 140.641L211.781 114.895L221.703 107.376C221.703 107.376 229.36 100.897 239.001 117.774C248.643 134.652 261.199 168.487 261.199 168.487L318.556 235.303C320.809 235.393 322.988 236.131 324.832 237.428C326.676 238.724 328.107 240.525 328.955 242.614C329.802 244.703 330.029 246.992 329.609 249.207C329.189 251.422 328.14 253.469 326.587 255.103C325.033 256.737 323.042 257.888 320.851 258.42C318.661 258.952 316.363 258.841 314.234 258.1C312.104 257.36 310.234 256.021 308.845 254.245C307.457 252.469 306.61 250.33 306.406 248.085L243.726 189.079L218.122 140.641Z" fill="#FFB7B7"/>
<path d="M267.689 526.093L282.072 526.092L288.915 470.614L267.686 470.615L267.689 526.093Z" fill="#FFB7B7"/>
<path d="M264.02 521.397L292.345 521.396H292.346C297.134 521.396 301.725 523.298 305.11 526.683C308.496 530.068 310.398 534.659 310.398 539.447V540.033L264.02 540.035L264.02 521.397Z" fill="#2F2E41"/>
<path d="M87.0157 526.093L101.399 526.092L108.242 470.614L87.0127 470.615L87.0157 526.093Z" fill="#FFB7B7"/>
<path d="M83.3467 521.397L111.672 521.396H111.674C116.461 521.396 121.052 523.298 124.438 526.683C127.823 530.068 129.725 534.659 129.725 539.447V540.033L83.3475 540.035L83.3467 521.397Z" fill="#2F2E41"/>
<path d="M175.23 91.3328C196.715 91.3328 214.132 73.9159 214.132 52.4311C214.132 30.9462 196.715 13.5293 175.23 13.5293C153.745 13.5293 136.328 30.9462 136.328 52.4311C136.328 73.9159 153.745 91.3328 175.23 91.3328Z" fill="#2F2E41"/>
<path d="M144.865 31.4564C151.152 25.17 152.426 16.2518 147.711 11.537C142.996 6.82223 134.078 8.09626 127.792 14.3826C121.505 20.669 120.231 29.5872 124.946 34.302C129.661 39.0168 138.579 37.7428 144.865 31.4564Z" fill="#2F2E41"/>
<path d="M215.776 19.1025C218.395 12.9708 213.891 5.16895 205.715 1.67662C197.54 -1.81571 188.789 0.323935 186.169 6.45565C183.55 12.5874 188.054 20.3892 196.23 23.8815C204.406 27.3739 213.157 25.2342 215.776 19.1025Z" fill="#2F2E41"/>
<path d="M205.434 77.5539C214.18 61.5544 208.3 41.4942 192.3 32.7481C176.301 24.002 156.241 29.882 147.494 45.8815C138.748 61.8809 144.628 81.9412 160.628 90.6873C176.627 99.4334 196.688 93.5534 205.434 77.5539Z" fill="#FFB7B7"/>
<path d="M141.772 40.9512C149.317 46.1511 158.272 48.9185 167.435 48.8819C164.166 51.1482 160.445 52.679 156.528 53.3689C168.711 55.9821 181.302 56.0529 193.513 53.5767C196.227 53.1415 198.846 52.2419 201.255 50.9175C202.456 50.2471 203.502 49.3316 204.325 48.2304C205.148 47.1293 205.731 45.8671 206.034 44.5261C206.846 39.8905 203.234 35.679 199.48 32.8407C193.733 28.5613 187.106 25.6129 180.079 24.2088C173.053 22.8047 165.802 22.98 158.852 24.722C154.313 25.8951 149.767 27.8773 146.819 31.522C143.871 35.1668 142.998 40.7857 145.806 44.5388L141.772 40.9512Z" fill="#2F2E41"/>
<path d="M159.917 104.651L127.239 131.338L155.792 199.417L156.336 210.31C156.336 210.31 126.696 237.638 108.357 313.978C90.0178 390.318 52.9775 491.756 52.9775 491.756L127.078 509.884L178.599 337.194L244.276 472.674L253.619 512.746L310.899 496.845L288.792 389.308L234.572 222.386L239.024 176.272C239.024 176.272 248.946 153.254 231.71 128.885L226.303 105.987L198.317 101.217L159.917 104.651Z" fill="#2F2E41"/>
<path d="M709.415 346.929H482.543C480.732 346.927 478.995 346.206 477.714 344.925C476.433 343.644 475.712 341.907 475.71 340.096V263.561C475.712 261.749 476.433 260.012 477.714 258.731C478.995 257.45 480.732 256.729 482.543 256.727H709.415C711.227 256.729 712.964 257.45 714.245 258.731C715.526 260.012 716.246 261.749 716.248 263.561V340.096C716.246 341.907 715.526 343.644 714.245 344.925C712.964 346.206 711.227 346.927 709.415 346.929Z" fill="#E5E5E5"/>
<path d="M571.379 277.228H511.244V284.061H571.379V277.228Z" fill="white"/>
<path d="M650.647 285.428C652.911 285.428 654.747 283.592 654.747 281.328C654.747 279.063 652.911 277.228 650.647 277.228C648.382 277.228 646.547 279.063 646.547 281.328C646.547 283.592 648.382 285.428 650.647 285.428Z" fill="#3498DB"/>
<path d="M664.314 285.428C666.578 285.428 668.414 283.592 668.414 281.328C668.414 279.063 666.578 277.228 664.314 277.228C662.05 277.228 660.214 279.063 660.214 281.328C660.214 283.592 662.05 285.428 664.314 285.428Z" fill="#3498DB"/>
<path d="M677.981 285.428C680.245 285.428 682.081 283.592 682.081 281.328C682.081 279.063 680.245 277.228 677.981 277.228C675.717 277.228 673.881 279.063 673.881 281.328C673.881 283.592 675.717 285.428 677.981 285.428Z" fill="#3498DB"/>
<path d="M709.415 443.965H482.543C480.732 443.963 478.995 443.242 477.714 441.961C476.433 440.68 475.712 438.943 475.71 437.131V360.596C475.712 358.784 476.433 357.048 477.714 355.766C478.995 354.485 480.732 353.765 482.543 353.763H709.415C711.227 353.765 712.964 354.485 714.245 355.766C715.526 357.048 716.246 358.784 716.248 360.596V437.131C716.246 438.943 715.526 440.68 714.245 441.961C712.964 443.242 711.227 443.963 709.415 443.965Z" fill="#E5E5E5"/>
<path d="M571.379 374.263H511.244V381.097H571.379V374.263Z" fill="white"/>
<path d="M650.647 382.463C652.911 382.463 654.747 380.628 654.747 378.363C654.747 376.099 652.911 374.263 650.647 374.263C648.382 374.263 646.547 376.099 646.547 378.363C646.547 380.628 648.382 382.463 650.647 382.463Z" fill="#3498DB"/>
<path d="M664.314 382.463C666.578 382.463 668.414 380.628 668.414 378.363C668.414 376.099 666.578 374.263 664.314 374.263C662.05 374.263 660.214 376.099 660.214 378.363C660.214 380.628 662.05 382.463 664.314 382.463Z" fill="#3498DB"/>
<path d="M677.981 382.463C680.245 382.463 682.081 380.628 682.081 378.363C682.081 376.099 680.245 374.263 677.981 374.263C675.717 374.263 673.881 376.099 673.881 378.363C673.881 380.628 675.717 382.463 677.981 382.463Z" fill="#3498DB"/>
<path d="M709.415 541H482.543C480.732 540.998 478.995 540.277 477.714 538.996C476.433 537.715 475.712 535.978 475.71 534.166V457.631C475.712 455.82 476.433 454.083 477.714 452.802C478.995 451.521 480.732 450.8 482.543 450.798H709.415C711.227 450.8 712.964 451.521 714.245 452.802C715.526 454.083 716.246 455.82 716.248 457.631V534.166C716.246 535.978 715.526 537.715 714.245 538.996C712.964 540.277 711.227 540.998 709.415 541Z" fill="#E5E5E5"/>
<path d="M571.379 471.298H511.244V478.132H571.379V471.298Z" fill="white"/>
<path d="M650.647 479.499C652.911 479.499 654.747 477.663 654.747 475.398C654.747 473.134 652.911 471.298 650.647 471.298C648.382 471.298 646.547 473.134 646.547 475.398C646.547 477.663 648.382 479.499 650.647 479.499Z" fill="#3498DB"/>
<path d="M664.314 479.499C666.578 479.499 668.414 477.663 668.414 475.398C668.414 473.134 666.578 471.298 664.314 471.298C662.05 471.298 660.214 473.134 660.214 475.398C660.214 477.663 662.05 479.499 664.314 479.499Z" fill="#3498DB"/>
<path d="M677.981 479.499C680.245 479.499 682.081 477.663 682.081 475.398C682.081 473.134 680.245 471.298 677.981 471.298C675.717 471.298 673.881 473.134 673.881 475.398C673.881 477.663 675.717 479.499 677.981 479.499Z" fill="#3498DB"/>
<path d="M437.17 375.975C432.849 375.961 428.546 375.404 424.364 374.318L423.54 374.09L422.775 373.707C395.127 359.845 371.803 341.536 353.449 319.287C338.255 300.761 326.41 279.727 318.445 257.131C308.92 230.078 304.338 201.532 304.917 172.857C304.929 172.255 304.938 171.79 304.938 171.47C304.938 157.531 312.676 145.3 324.65 140.311C333.815 136.492 417.025 102.315 423.037 99.8451C434.36 94.1718 446.439 98.9071 448.372 99.7351C452.707 101.508 529.63 132.97 546.253 140.886C563.385 149.043 567.956 163.699 567.956 171.072C567.956 204.454 562.174 235.651 550.772 263.799C541.564 286.582 528.513 307.615 512.187 325.982C480.689 361.429 449.183 373.995 448.879 374.105C445.113 375.401 441.151 376.034 437.17 375.975ZM429.761 357.622C432.492 358.234 438.781 359.153 442.88 357.658C448.087 355.759 474.457 342.084 499.1 314.353C533.147 276.038 550.422 227.873 550.448 171.195C550.387 170.047 549.571 161.857 538.726 156.693C522.425 148.931 442.471 116.237 441.665 115.908L441.444 115.814C439.768 115.112 434.436 113.633 430.76 115.559L430.024 115.902C429.133 116.268 340.804 152.547 331.384 156.472C324.794 159.218 322.446 166.02 322.446 171.47C322.446 171.868 322.436 172.448 322.422 173.197C321.669 211.977 330.643 307.405 429.761 357.622Z" fill="#3F3D56"/>
<path d="M426.698 107.805C426.698 107.805 337.567 144.413 328.017 148.392C318.467 152.371 313.693 161.921 313.693 171.47C313.693 181.02 306.53 305.632 426.698 365.882C426.698 365.882 437.605 368.9 445.879 365.882C454.154 362.864 559.202 311.932 559.202 171.073C559.202 171.073 559.202 156.748 542.49 148.79C525.777 140.832 444.977 107.805 444.977 107.805C444.977 107.805 435.055 103.428 426.698 107.805Z" fill="#3498DB"/>
<path opacity="0.2" d="M436.248 136.454V331.742C436.248 331.742 526.175 288.455 525.379 174.653L436.248 136.454Z" fill="black"/>
<path d="M825 541H1C0.734784 541 0.480429 540.895 0.292892 540.707C0.105356 540.52 0 540.265 0 540C0 539.735 0.105356 539.48 0.292892 539.293C0.480429 539.105 0.734784 539 1 539H825C825.265 539 825.52 539.105 825.707 539.293C825.895 539.48 826 539.735 826 540C826 540.265 825.895 540.52 825.707 540.707C825.52 540.895 825.265 541 825 541Z" fill="#CBCBCB"/>
</g>
<defs>
<clipPath id="clip0_353_1287">
<rect width="826" height="541" fill="white"/>
</clipPath>
</defs>
</svg>
