<svg width="692" height="532" viewBox="0 0 692 532" fill="none" xmlns="http://www.w3.org/2000/svg">
<g clip-path="url(#clip0_354_1369)">
<path d="M107.412 17.6907C112.616 18.6659 116.241 24.9574 117.537 31.3344C118.833 37.7113 118.413 44.4158 118.938 50.9627C119.462 57.5095 121.24 64.4621 125.596 68.1537C121.044 67.3105 116.883 63.6377 114.724 58.5557C114.929 59.8279 114.807 61.1313 114.37 62.3436C113.933 63.5558 113.195 64.6371 112.226 65.4858C110.445 66.8434 108.368 67.7577 106.164 68.1529L88.4235 72.7292C85.2006 73.5605 81.7897 74.3797 78.68 73.0335C74.6924 71.3074 72.1736 66.4702 70.1942 61.8102C67.6966 56.2969 65.9701 50.466 65.0633 44.4816C64.2812 38.3714 64.8365 31.8302 67.3958 26.5341C68.8446 23.6151 70.8994 21.0389 73.4232 18.9774C75.9469 16.9159 78.8815 15.4166 82.0308 14.5796C87.8748 12.9404 93.9431 13.2924 99.9253 13.6531C103.323 13.858 106.847 14.1045 109.852 16.0984" fill="#2F2E41"/>
<path d="M103.603 504.233H116.002L121.901 456.407L103.601 456.408L103.603 504.233Z" fill="#A0616A"/>
<path d="M120.128 505.349V496.944L116.869 497.143L103.6 497.929L100.529 498.117L98.1814 526.269L98.0557 527.779H106.86L107.143 526.28L108.421 519.467L111.723 526.28L112.446 527.779H135.787C137.176 527.77 138.505 527.213 139.487 526.23C140.468 525.247 141.022 523.917 141.028 522.528C142.013 517.926 122.602 507.98 120.128 505.349Z" fill="#2F2E41"/>
<path d="M254.973 466.497L265.419 459.817L244.624 416.347L229.207 426.207L254.973 466.497Z" fill="#A0616A"/>
<path d="M269.496 458.535L264.968 451.453L262.329 453.377L251.573 461.188L249.088 463.001L262.276 487.983L262.983 489.322L270.4 484.579L269.831 483.164L267.238 476.736L273.69 480.697L275.107 481.57L294.771 468.995C295.937 468.24 296.757 467.055 297.054 465.698C297.351 464.341 297.101 462.922 296.357 461.748C294.709 457.341 272.997 459.419 269.496 458.535Z" fill="#2F2E41"/>
<path d="M527.685 70.7423H323.279C322.11 70.7423 320.989 70.2779 320.162 69.4512C319.336 68.6246 318.871 67.5034 318.871 66.3343C318.871 65.1652 319.336 64.044 320.162 63.2173C320.989 62.3907 322.11 61.9263 323.279 61.9263H527.685C528.855 61.9263 529.976 62.3907 530.802 63.2173C531.629 64.044 532.094 65.1652 532.094 66.3343C532.094 67.5034 531.629 68.6246 530.802 69.4512C529.976 70.2779 528.855 70.7423 527.685 70.7423Z" fill="#E6E6E6"/>
<path d="M527.685 164.742H323.279C322.11 164.742 320.989 164.278 320.162 163.451C319.336 162.625 318.871 161.503 318.871 160.334C318.871 159.165 319.336 158.044 320.162 157.217C320.989 156.391 322.11 155.926 323.279 155.926H527.685C528.855 155.926 529.976 156.391 530.802 157.217C531.629 158.044 532.094 159.165 532.094 160.334C532.094 161.503 531.629 162.625 530.802 163.451C529.976 164.278 528.855 164.742 527.685 164.742Z" fill="#3498DB"/>
<path d="M631.16 117.773H323.279C322.11 117.773 320.989 117.309 320.162 116.482C319.336 115.655 318.871 114.534 318.871 113.365C318.871 112.196 319.336 111.075 320.162 110.248C320.989 109.421 322.11 108.957 323.279 108.957H631.16C632.329 108.957 633.45 109.421 634.277 110.248C635.103 111.075 635.568 112.196 635.568 113.365C635.568 114.534 635.103 115.655 634.277 116.482C633.45 117.309 632.329 117.773 631.16 117.773Z" fill="#3498DB"/>
<path d="M532.093 177.987C531.828 177.987 531.573 177.882 531.386 177.695C531.198 177.507 531.093 177.253 531.093 176.987V143.681C531.093 143.416 531.198 143.161 531.386 142.974C531.573 142.786 531.828 142.681 532.093 142.681C532.358 142.681 532.612 142.786 532.8 142.974C532.987 143.161 533.093 143.416 533.093 143.681V176.987C533.093 177.253 532.987 177.507 532.8 177.695C532.612 177.882 532.358 177.987 532.093 177.987Z" fill="#3F3D56"/>
<path d="M301.41 49.3499C301.41 49.0846 301.515 48.8303 301.703 48.6427C301.891 48.4552 302.145 48.3499 302.41 48.3499H335.717C335.982 48.3499 336.236 48.4552 336.424 48.6427C336.611 48.8303 336.717 49.0846 336.717 49.3499C336.717 49.6151 336.611 49.8694 336.424 50.057C336.236 50.2445 335.982 50.3499 335.717 50.3499H302.41C302.145 50.3498 301.891 50.2445 301.703 50.0569C301.516 49.8694 301.41 49.6151 301.41 49.3499Z" fill="#3F3D56"/>
<path d="M319.063 83.9875C318.798 83.9875 318.544 83.8822 318.356 83.6946C318.169 83.5071 318.063 83.2527 318.063 82.9875V49.6809C318.063 49.4157 318.169 49.1613 318.356 48.9738C318.544 48.7863 318.798 48.6809 319.063 48.6809C319.329 48.6809 319.583 48.7863 319.771 48.9738C319.958 49.1613 320.063 49.4157 320.063 49.6809V82.9875C320.063 83.2527 319.958 83.5071 319.771 83.6946C319.583 83.8821 319.329 83.9875 319.063 83.9875Z" fill="#3F3D56"/>
<path d="M136.52 192.822L65.7621 205.097L66.4026 215.858C66.4026 215.858 52.7904 262.303 60.063 276.35C67.3355 290.397 72.8038 327.184 72.8038 327.184C72.8038 327.184 45.8214 470.555 78.4422 473.452C111.063 476.35 150.189 473.364 150.126 463.857C150.063 454.35 124.961 281.084 124.961 281.084C124.961 281.084 167.063 373.205 175.063 373.277C183.063 373.35 183.063 373.35 183.063 380.35C183.063 387.35 173.063 381.861 183.063 392.106C193.063 402.35 206.953 447.267 219.008 446.808C231.063 446.35 286.315 413.492 286.189 405.421C286.063 397.35 136.52 192.822 136.52 192.822Z" fill="#2F2E41"/>
<path d="M65.9048 207.498L69.0628 171.35L53.803 114.773C53.803 114.773 50.645 86.5546 59.8539 84.4522C69.0628 82.3499 72.4023 82.1845 72.4023 82.1845L78.614 70.3499H99.5904L110.063 80.3499C110.063 80.3499 124.063 89.3499 124.063 93.3499C124.063 97.3499 138.976 176.775 136.52 178.562C134.063 180.35 133.439 182.726 136.751 183.038C140.063 183.35 146.063 181.35 142.063 185.35C139.5 188.101 137.604 191.403 136.52 195.003L65.9048 207.498Z" fill="#E6E6E6"/>
<path d="M218.973 199.599C218.707 198.231 218.146 196.938 217.331 195.809C216.515 194.679 215.464 193.74 214.25 193.056C213.036 192.373 211.688 191.961 210.3 191.85C208.911 191.739 207.514 191.931 206.207 192.412L173.315 157.53L161.43 164.255L200.799 205.4C201.773 207.541 203.499 209.249 205.648 210.202C207.798 211.155 210.223 211.287 212.463 210.572C214.703 209.857 216.603 208.345 217.803 206.322C219.003 204.3 219.419 201.908 218.973 199.599Z" fill="#A0616A"/>
<path d="M90.867 80.4527C90.867 80.4527 84.9918 102.903 94.0208 110.751C103.05 118.599 110.13 126.962 114.704 128.741C119.279 130.52 141.03 156.832 145.32 156.951C149.61 157.071 147.271 162.41 153.504 163.905C159.738 165.4 161.397 165.116 161.681 166.775C161.965 168.434 179.685 185.741 179.685 185.741L192.516 174.108L130.912 95.1916C126.272 89.2486 120.065 84.7197 112.99 82.1155C105.914 79.5114 98.2522 78.9355 90.867 80.4527Z" fill="#E6E6E6"/>
<path d="M241.945 192.567L54.5401 274.184C54.0094 274.415 53.4384 274.539 52.8596 274.55C52.2808 274.56 51.7057 274.457 51.1669 274.245C50.6282 274.033 50.1365 273.717 49.7199 273.315C49.3032 272.913 48.9698 272.433 48.7387 271.903C48.5076 271.372 48.3832 270.801 48.3728 270.222C48.3623 269.643 48.466 269.068 48.6778 268.529C48.8897 267.991 49.2055 267.499 49.6074 267.082C50.0093 266.666 50.4893 266.332 51.02 266.101L238.425 184.484C238.956 184.253 239.527 184.129 240.106 184.118C240.684 184.108 241.26 184.212 241.798 184.423C242.337 184.635 242.829 184.951 243.245 185.353C243.662 185.755 243.995 186.235 244.227 186.766C244.458 187.296 244.582 187.867 244.593 188.446C244.603 189.025 244.499 189.6 244.287 190.139C244.076 190.678 243.76 191.169 243.358 191.586C242.956 192.003 242.476 192.336 241.945 192.567Z" fill="#3498DB"/>
<path d="M322.778 521.289C323.027 521.3 323.273 521.235 323.484 521.101C323.695 520.968 323.859 520.773 323.956 520.543C324.052 520.313 324.075 520.059 324.022 519.815C323.969 519.571 323.842 519.35 323.659 519.18L323.576 518.849L323.609 518.77C323.86 518.177 324.281 517.671 324.818 517.317C325.355 516.962 325.985 516.774 326.629 516.776C327.273 516.779 327.902 516.971 328.436 517.33C328.971 517.689 329.388 518.197 329.635 518.792C330.62 521.165 331.875 523.543 332.184 526.053C332.32 527.162 332.262 528.287 332.014 529.376C334.329 524.327 335.531 518.839 335.538 513.285C335.539 511.891 335.461 510.498 335.306 509.113C335.178 507.977 335.001 506.85 334.773 505.731C333.533 499.657 330.869 493.964 327.001 489.12C325.129 488.098 323.615 486.527 322.663 484.619C322.318 483.933 322.074 483.201 321.939 482.445C322.35 481.362 322.565 480.216 322.576 479.059C322.871 478.612 323.398 478.39 323.719 477.955C325.318 475.787 327.52 476.166 328.67 479.111C331.126 480.35 331.15 482.406 329.643 484.384C328.684 485.641 328.552 487.344 327.711 488.69C327.797 488.801 327.887 488.908 327.974 489.019C329.556 491.054 330.935 493.238 332.091 495.542C331.81 492.961 332.145 490.351 333.07 487.925C334.007 485.665 335.763 483.761 337.31 481.807C337.719 481.282 338.275 480.89 338.906 480.68C339.538 480.471 340.218 480.454 340.859 480.631C341.501 480.808 342.076 481.171 342.511 481.674C342.946 482.178 343.223 482.799 343.305 483.459L343.314 483.546C343.084 483.675 342.86 483.813 342.64 483.958C342.363 484.143 342.149 484.407 342.025 484.715C341.901 485.024 341.873 485.363 341.945 485.687C342.017 486.012 342.185 486.307 342.428 486.534C342.671 486.762 342.976 486.91 343.305 486.961L343.338 486.966C343.257 487.794 343.112 488.615 342.906 489.421C344.89 497.094 340.606 499.889 334.489 500.015C334.354 500.084 334.223 500.153 334.088 500.219C335.249 503.51 335.978 506.939 336.255 510.418C336.412 512.471 336.403 514.533 336.227 516.584L336.238 516.511C336.681 514.23 337.898 512.172 339.682 510.685C342.333 508.507 346.079 507.705 348.938 505.955C349.242 505.76 349.596 505.655 349.957 505.655C350.318 505.654 350.672 505.756 350.977 505.95C351.282 506.143 351.525 506.42 351.678 506.748C351.83 507.075 351.886 507.439 351.839 507.797L351.827 507.874C351.401 508.047 350.986 508.247 350.584 508.472C350.355 508.602 350.13 508.74 349.91 508.885C349.633 509.07 349.419 509.334 349.295 509.642C349.171 509.951 349.144 510.289 349.216 510.614C349.287 510.939 349.456 511.234 349.698 511.461C349.941 511.688 350.246 511.837 350.575 511.888L350.609 511.893L350.678 511.903C349.949 513.643 348.927 515.244 347.656 516.636C346.415 523.335 341.086 523.97 335.386 522.019H335.383C334.757 524.737 333.851 527.383 332.679 529.913H323.02C322.985 529.806 322.954 529.695 322.923 529.587C323.817 529.644 324.714 529.59 325.595 529.428C324.879 528.549 324.162 527.663 323.445 526.783C323.429 526.767 323.414 526.749 323.4 526.731C323.037 526.281 322.67 525.835 322.306 525.385C322.287 524.005 322.445 522.628 322.778 521.289Z" fill="#F2F2F2"/>
<path d="M1.19115 531.285L390.917 531.592C391.233 531.592 391.535 531.467 391.759 531.243C391.982 531.02 392.107 530.717 392.107 530.401C392.107 530.086 391.982 529.783 391.759 529.559C391.535 529.336 391.233 529.211 390.917 529.211L1.19115 528.903C0.875955 528.904 0.573977 529.03 0.351425 529.253C0.128873 529.476 0.00390625 529.779 0.00390625 530.094C0.00390625 530.409 0.128873 530.712 0.351425 530.935C0.573977 531.158 0.875955 531.284 1.19115 531.285Z" fill="#CACACA"/>
<path d="M89.2758 64.8153C102.153 64.8153 112.592 54.3764 112.592 41.4994C112.592 28.6225 102.153 18.1836 89.2758 18.1836C76.3988 18.1836 65.96 28.6225 65.96 41.4994C65.96 54.3764 76.3988 64.8153 89.2758 64.8153Z" fill="#A0616A"/>
<path d="M79.126 42.9096C79.0838 40.9518 75.8801 40.6397 74.7016 42.2037C73.523 43.7676 73.8161 45.9504 74.1647 47.8774C75.0004 52.4969 75.836 57.1163 76.6717 61.7358C77.663 67.2156 79.0647 73.3294 83.7798 76.2923C80.2389 77.8495 76.407 79.4417 72.6192 78.6571C68.8314 77.8725 65.5895 73.5372 67.4071 70.1226C66.5029 72.7031 65.5434 75.3778 63.2898 77.0955C62.5966 77.6644 61.768 78.0444 60.8845 78.1985C60.001 78.3526 59.0927 78.2756 58.2477 77.9751C54.9283 76.6431 56.5351 71.8485 55.0596 68.623C50.8234 59.3625 46.8344 50.4513 53.5513 42.0915C54.5129 40.8947 53.7498 38.5818 53.7487 36.4268C53.7426 24.7983 65.6024 14.4893 76.9314 11.867C77.1732 11.8111 77.4053 11.7614 77.6277 11.718C80.7484 11.13 83.9567 11.1914 87.0527 11.8983C90.1486 12.6052 93.0656 13.9425 95.6218 15.8267C98.3733 13.5226 102.826 14.5443 105.308 17.1372C107.789 19.7301 112.44 23.8155 113.063 27.3498C113.686 30.8841 112.338 34.203 114.063 37.3498C110.127 38.1283 103.916 36.8367 100.99 34.0909C99.1036 37.7456 94.2453 38.4233 90.1336 38.5213C86.0218 38.6192 81.2309 38.9309 78.9132 42.3286" fill="#2F2E41"/>
<path d="M343.763 0.000454519C317.356 0.595125 290.945 1.10275 264.54 1.78495C259.618 1.9121 254.207 2.32321 250.398 5.82064C246.604 9.30327 245.968 14.7839 245.897 19.6453C245.706 32.6645 246.024 45.7107 246.096 58.7313L246.341 103.418C246.352 105.348 248.793 105.272 249.341 103.418C256.972 77.6212 275.616 51.8245 248.916 26.0277C245.403 22.6335 248.234 15.4231 250.397 10.8633C252.657 6.09946 257.841 5.08634 262.637 4.85208C268.792 4.55145 274.974 4.54955 281.134 4.41082L300.347 3.97818L343.763 3.00047C345.69 2.95706 345.697 -0.0431055 343.763 0.000454519Z" fill="#F2F2F2"/>
<path d="M593.39 199.918C619.797 199.323 646.208 198.816 672.613 198.133C677.534 198.006 682.946 197.595 686.755 194.098C690.548 190.615 691.185 185.135 691.256 180.273C691.446 167.254 691.129 154.208 691.057 141.187C690.975 126.292 690.893 111.396 690.811 96.5005C690.801 94.5707 688.028 94.5787 687.811 96.5005C684.902 122.298 656.714 148.099 688.237 173.891C692.018 176.984 688.918 184.495 686.756 189.055C684.496 193.819 679.312 194.832 674.515 195.066C668.36 195.367 662.179 195.369 656.018 195.508L636.806 195.94L593.39 196.918C591.462 196.961 591.455 199.962 593.39 199.918Z" fill="#F2F2F2"/>
<path d="M402.385 478.807L287.225 431.028C285.738 430.41 284.556 429.227 283.94 427.739C283.325 426.25 283.326 424.579 283.943 423.091L311.087 357.668C311.704 356.18 312.887 354.999 314.376 354.383C315.864 353.768 317.536 353.769 319.024 354.386L464.271 414.649C465.758 415.266 466.94 416.449 467.555 417.937C468.171 419.426 468.17 421.098 467.553 422.586L452.892 457.921C450.947 462.609 448.098 466.868 444.507 470.454C440.916 474.041 436.654 476.885 431.964 478.825C427.274 480.764 422.248 481.761 417.173 481.758C412.098 481.755 407.073 480.752 402.385 478.807Z" fill="#F2F2F2"/>
<path d="M395.03 471.562L315.204 438.442C307.645 435.296 301.642 429.28 298.514 421.713C295.385 414.147 295.385 405.649 298.514 398.082L303.673 385.649C306.819 378.09 312.835 372.087 320.402 368.958C327.968 365.829 336.466 365.83 344.033 368.959L436.293 407.237C443.852 410.384 449.854 416.4 452.983 423.966C456.112 431.533 456.112 440.031 452.982 447.597C448.465 458.451 439.826 467.07 428.962 471.563C418.097 476.056 405.894 476.055 395.03 471.562Z" fill="white"/>
<path d="M389.909 409.945L344.486 391.099C344.296 391.02 344.123 390.905 343.978 390.759C343.832 390.614 343.717 390.441 343.638 390.251C343.56 390.061 343.519 389.857 343.52 389.651C343.52 389.446 343.56 389.242 343.639 389.052C343.718 388.862 343.833 388.689 343.979 388.544C344.124 388.399 344.297 388.283 344.487 388.205C344.677 388.126 344.881 388.086 345.087 388.086C345.292 388.086 345.496 388.127 345.686 388.206L391.109 407.052C391.492 407.212 391.796 407.517 391.954 407.9C392.112 408.284 392.111 408.714 391.952 409.097C391.793 409.48 391.489 409.785 391.106 409.944C390.723 410.102 390.293 410.103 389.909 409.945Z" fill="#E6E6E6"/>
<path d="M377.109 440.795L331.686 421.949C331.496 421.87 331.323 421.754 331.178 421.609C331.032 421.463 330.917 421.291 330.839 421.101C330.76 420.91 330.72 420.707 330.72 420.501C330.72 420.295 330.76 420.092 330.839 419.902C330.918 419.712 331.034 419.539 331.179 419.394C331.325 419.249 331.497 419.133 331.687 419.055C331.878 418.976 332.081 418.936 332.287 418.936C332.493 418.936 332.696 418.977 332.886 419.055L378.31 437.902C378.693 438.061 378.998 438.366 379.157 438.75C379.316 439.134 379.315 439.565 379.156 439.948C378.997 440.332 378.692 440.637 378.308 440.796C377.924 440.954 377.493 440.954 377.109 440.795Z" fill="#E6E6E6"/>
<path d="M417.464 439.47L338.081 406.534C337.891 406.455 337.718 406.34 337.572 406.194C337.427 406.049 337.311 405.876 337.232 405.686C337.154 405.496 337.113 405.292 337.113 405.086C337.113 404.88 337.154 404.676 337.233 404.486C337.312 404.296 337.427 404.123 337.573 403.978C337.719 403.833 337.892 403.717 338.082 403.639C338.272 403.56 338.476 403.52 338.682 403.52C338.888 403.521 339.092 403.561 339.282 403.641L418.664 436.576C419.047 436.736 419.35 437.041 419.508 437.425C419.666 437.808 419.666 438.239 419.507 438.622C419.348 439.005 419.044 439.309 418.661 439.468C418.278 439.627 417.847 439.628 417.464 439.47Z" fill="#F2F2F2"/>
<path d="M217.385 353.807L102.225 306.027C100.738 305.41 99.5559 304.227 98.9404 302.739C98.3249 301.25 98.3259 299.578 98.9431 298.091L126.087 232.668C126.704 231.18 127.887 229.999 129.376 229.383C130.864 228.768 132.536 228.769 134.024 229.386L279.271 289.649C280.758 290.266 281.94 291.449 282.555 292.937C283.171 294.426 283.17 296.098 282.553 297.585L267.892 332.921C265.947 337.609 263.098 341.868 259.507 345.454C255.916 349.041 251.654 351.885 246.964 353.824C242.274 355.764 237.248 356.761 232.173 356.758C227.098 356.755 222.073 355.752 217.385 353.807Z" fill="#F2F2F2"/>
<path d="M210.03 346.562L130.204 313.442C122.645 310.296 116.642 304.28 113.514 296.713C110.385 289.147 110.385 280.649 113.514 273.082L118.673 260.649C121.819 253.09 127.835 247.087 135.402 243.958C142.968 240.829 151.466 240.83 159.033 243.959L251.292 282.237C258.852 285.384 264.854 291.4 267.983 298.966C271.112 306.533 271.112 315.031 267.982 322.597C263.465 333.451 254.826 342.07 243.962 346.563C233.097 351.056 220.894 351.055 210.03 346.562Z" fill="white"/>
<path d="M204.909 284.945L159.486 266.099C159.102 265.94 158.797 265.635 158.638 265.251C158.48 264.867 158.48 264.436 158.639 264.052C158.798 263.668 159.103 263.364 159.487 263.205C159.871 263.046 160.302 263.046 160.686 263.206L206.11 282.052C206.492 282.212 206.796 282.517 206.954 282.9C207.112 283.284 207.111 283.714 206.952 284.097C206.793 284.48 206.489 284.785 206.106 284.944C205.723 285.102 205.292 285.103 204.909 284.945Z" fill="#E6E6E6"/>
<path d="M192.109 315.795L146.686 296.949C146.496 296.87 146.323 296.754 146.178 296.609C146.032 296.463 145.917 296.291 145.839 296.101C145.76 295.91 145.72 295.707 145.72 295.501C145.72 295.295 145.761 295.092 145.839 294.902C145.918 294.712 146.034 294.539 146.179 294.394C146.325 294.249 146.497 294.133 146.687 294.055C146.878 293.976 147.081 293.936 147.287 293.936C147.493 293.936 147.696 293.977 147.886 294.055L193.31 312.902C193.5 312.98 193.672 313.096 193.818 313.241C193.963 313.387 194.078 313.56 194.157 313.75C194.235 313.94 194.276 314.143 194.276 314.349C194.276 314.555 194.235 314.758 194.156 314.948C194.077 315.138 193.962 315.311 193.816 315.456C193.671 315.602 193.498 315.717 193.308 315.796C193.118 315.874 192.914 315.915 192.709 315.914C192.503 315.914 192.299 315.874 192.109 315.795Z" fill="#E6E6E6"/>
<path d="M232.464 314.47L153.081 281.534C152.891 281.455 152.718 281.34 152.572 281.194C152.427 281.049 152.311 280.876 152.233 280.686C152.154 280.496 152.113 280.292 152.113 280.086C152.113 279.88 152.154 279.676 152.233 279.486C152.312 279.296 152.427 279.123 152.573 278.978C152.719 278.833 152.892 278.717 153.082 278.639C153.272 278.56 153.476 278.52 153.682 278.52C153.888 278.521 154.092 278.561 154.282 278.641L233.664 311.576C234.047 311.736 234.351 312.041 234.509 312.425C234.667 312.808 234.666 313.239 234.507 313.622C234.348 314.005 234.044 314.309 233.661 314.468C233.278 314.627 232.847 314.628 232.464 314.47Z" fill="#F2F2F2"/>
<path d="M141.874 240.703C142.138 239.335 142.101 237.926 141.767 236.574C141.432 235.221 140.808 233.957 139.937 232.87C139.067 231.782 137.97 230.897 136.723 230.275C135.477 229.653 134.11 229.309 132.717 229.267L115.239 184.622L101.701 186.421L122.849 239.295C122.953 241.644 123.915 243.873 125.553 245.561C127.191 247.248 129.391 248.276 131.736 248.449C134.081 248.623 136.408 247.93 138.277 246.502C140.145 245.075 141.425 243.011 141.874 240.703Z" fill="#A0616A"/>
<path d="M67.5557 82.3247C67.5557 82.3247 53.7188 100.954 59.162 111.607C64.6052 122.261 68.0488 132.663 71.6273 136.022C75.2058 139.381 85.5519 171.914 89.4869 173.627C93.4219 175.341 89.2572 179.419 94.481 183.135C99.7048 186.851 101.35 187.207 100.994 188.852C100.637 190.498 110.609 213.171 110.609 213.171L126.856 207.173L92.2572 86.8259L67.5557 82.3247Z" fill="#E6E6E6"/>
</g>
<defs>
<clipPath id="clip0_354_1369">
<rect width="691.315" height="531.592" fill="white"/>
</clipPath>
</defs>
</svg>
